<svg xmlns="http://www.w3.org/2000/svg" xmlns:xlink="http://www.w3.org/1999/xlink" width="300" zoomAndPan="magnify" viewBox="0 0 224.87999 225" height="300" preserveAspectRatio="xMidYMid meet" version="1.0"><defs><clipPath id="b0f4f622b6"><path d="M 122 132 L 211.875 132 L 211.875 202 L 122 202 Z M 122 132 " clip-rule="nonzero"/></clipPath></defs><path fill="#f4abba" d="M 73.347656 79.316406 C 74.0625 66.332031 74.773438 61.210938 73.960938 51.621094 C 73.0625 42.832031 71.53125 36.394531 69.375 30.125 C 67.214844 23.855469 49.117188 26.304688 51.28125 37.070312 C 53.4375 47.839844 54.90625 78.632812 54.039062 88.648438 C 63.503906 82.644531 73.347656 79.316406 73.347656 79.316406 Z M 73.347656 79.316406 " fill-opacity="1" fill-rule="nonzero"/><path fill="#be1931" d="M 63.503906 82.644531 C 50.425781 89.175781 37.34375 102.230469 37.34375 121.8125 C 37.34375 175.128906 85.222656 187.421875 124.46875 200.476562 C 163.707031 213.535156 168.378906 210.109375 181.230469 200.15625 C 187.773438 187.097656 183.761719 116.703125 164.140625 90.589844 C 149.992188 71.757812 93.332031 67.753906 63.503906 82.644531 Z M 63.503906 82.644531 " fill-opacity="1" fill-rule="nonzero"/><path fill="#a0041e" d="M 63.503906 82.644531 C 50.425781 89.175781 37.34375 102.230469 37.34375 121.8125 C 37.34375 175.128906 97.453125 204.707031 118.996094 209.800781 C 157.367188 218.871094 174.6875 213.210938 181.226562 200.15625 C 170.324219 206.949219 124.261719 196.40625 99.84375 174.6875 C 74.242188 151.910156 62.703125 112.199219 79.15625 91.96875 C 79.59375 85.644531 78.4375 82.28125 78.4375 77.222656 C 73.019531 78.613281 67.960938 80.414062 63.503906 82.644531 Z M 63.503906 82.644531 " fill-opacity="1" fill-rule="nonzero"/><path fill="#ea596e" d="M 79.164062 91.96875 C 70.523438 78.914062 65.980469 55.042969 83.125 36.941406 C 99.332031 19.839844 130.636719 19.597656 145.644531 42.882812 C 158.398438 62.675781 148.523438 102.222656 148.523438 102.222656 C 148.523438 102.222656 119.148438 71.828125 110.320312 86.054688 C 101.5 100.289062 80.527344 94.027344 79.164062 91.96875 Z M 79.164062 91.96875 " fill-opacity="1" fill-rule="nonzero"/><path fill="#f4abba" d="M 147.128906 108.109375 C 154.199219 98.148438 154.199219 82.667969 154.199219 82.667969 C 154.199219 82.667969 156.171875 73.578125 176.828125 79.382812 C 178.847656 79.949219 185.015625 70.355469 181.152344 68.898438 C 167.113281 63.59375 157.121094 67.011719 157.121094 67.011719 C 157.121094 67.011719 164.023438 61.914062 174.070312 60.707031 C 178.058594 60.222656 174.824219 52.34375 170.859375 52.421875 C 166.582031 52.507812 162.6875 53.546875 158.070312 55.558594 C 155.910156 56.5 153.667969 54.894531 152.859375 54.09375 C 140.703125 42.039062 127.035156 43.785156 118.695312 47.484375 C 109.800781 51.433594 106.097656 62.609375 111.570312 70.179688 C 117.042969 77.746094 111.652344 83.472656 108.25 89.523438 C 102.75 99.300781 137.792969 121.269531 147.128906 108.109375 Z M 147.128906 108.109375 " fill-opacity="1" fill-rule="nonzero"/><path fill="#ea596e" d="M 93.9375 41.53125 C 89.386719 31.109375 84.214844 26.4375 77.464844 19.96875 C 70.714844 13.496094 82.054688 5.417969 89.34375 12.421875 C 96.632812 19.429688 103.382812 32.640625 104.464844 35.875 C 105.550781 39.109375 96.652344 47.746094 93.9375 41.53125 Z M 93.9375 41.53125 " fill-opacity="1" fill-rule="nonzero"/><path fill="#ea596e" d="M 99.851562 26.609375 C 106.785156 22.988281 109.058594 12.96875 109.597656 9.730469 C 110.136719 6.496094 120.125 6.226562 119.042969 13.234375 C 117.960938 20.242188 119.125 24.949219 119.125 24.949219 C 119.125 24.949219 124.445312 15.898438 129.84375 11.3125 C 135.242188 6.730469 141.4375 14.015625 138.464844 18.285156 C 135.492188 22.550781 134.925781 30.367188 136.324219 33.132812 C 137.726562 35.898438 122.617188 39.371094 112.996094 37.484375 C 103.390625 35.605469 99.851562 26.609375 99.851562 26.609375 Z M 99.851562 26.609375 " fill-opacity="1" fill-rule="nonzero"/><path fill="#f4abba" d="M 78.441406 66.511719 L 78.253906 66.503906 C 76.566406 66.398438 75.285156 64.953125 75.390625 63.269531 C 76.429688 46.472656 87.597656 33.023438 103.832031 29.019531 C 124.511719 23.9375 137.179688 36.003906 137.707031 36.523438 C 138.910156 37.699219 138.9375 39.628906 137.753906 40.835938 C 136.585938 42.035156 134.648438 42.0625 133.445312 40.890625 C 133.011719 40.476562 122.574219 30.691406 105.296875 34.945312 C 91.503906 38.351562 82.378906 49.347656 81.492188 63.648438 C 81.390625 65.265625 80.042969 66.511719 78.441406 66.511719 Z M 93.875 29.085938 C 92.816406 29.085938 91.789062 28.542969 91.222656 27.5625 C 91.183594 27.496094 87.253906 20.785156 81.585938 17.152344 C 80.167969 16.246094 79.75 14.359375 80.660156 12.941406 C 81.574219 11.519531 83.460938 11.105469 84.886719 12.019531 C 91.828125 16.46875 96.335938 24.191406 96.515625 24.515625 C 97.363281 25.972656 96.859375 27.835938 95.398438 28.679688 C 94.921875 28.953125 94.394531 29.085938 93.875 29.085938 Z M 111.46875 24.753906 C 111.15625 24.753906 110.84375 24.710938 110.53125 24.605469 C 108.925781 24.09375 108.042969 22.378906 108.550781 20.773438 C 108.558594 20.742188 109.617188 17.386719 110.25 11.539062 C 110.433594 9.859375 111.96875 8.644531 113.621094 8.835938 C 115.300781 9.019531 116.511719 10.519531 116.328125 12.199219 C 115.621094 18.730469 114.421875 22.488281 114.371094 22.640625 C 113.957031 23.9375 112.757812 24.753906 111.46875 24.753906 Z M 126.40625 25.832031 C 125.851562 25.832031 125.289062 25.679688 124.78125 25.363281 C 123.355469 24.464844 122.921875 22.585938 123.820312 21.164062 C 123.953125 20.949219 127.132812 15.953125 132.421875 12.125 C 133.789062 11.140625 135.699219 11.441406 136.691406 12.800781 C 137.683594 14.164062 137.382812 16.074219 136.019531 17.0625 C 131.714844 20.175781 129.019531 24.375 129 24.417969 C 128.414062 25.332031 127.421875 25.832031 126.40625 25.832031 Z M 126.40625 25.832031 " fill-opacity="1" fill-rule="nonzero"/><path fill="#f7dae2" d="M 148.078125 88.367188 C 147.90625 88.367188 147.730469 88.355469 147.550781 88.324219 C 145.894531 88.039062 144.777344 86.464844 145.058594 84.804688 L 145.339844 83.199219 C 147.507812 70.8125 149.386719 60.113281 133.011719 53.09375 C 131.457031 52.429688 130.742188 50.632812 131.410156 49.082031 C 132.070312 47.535156 133.871094 46.8125 135.417969 47.484375 C 156.234375 56.402344 153.53125 71.84375 151.355469 84.25 L 151.078125 85.828125 C 150.835938 87.320312 149.539062 88.367188 148.078125 88.367188 Z M 158.460938 61.988281 C 157.597656 61.988281 156.777344 61.5 156.386719 60.675781 C 155.84375 59.527344 156.332031 58.167969 157.480469 57.628906 C 157.78125 57.488281 164.921875 54.144531 170.269531 54.003906 C 171.539062 54.179688 172.585938 54.972656 172.621094 56.230469 C 172.652344 57.496094 171.65625 58.542969 170.390625 58.582031 C 166.019531 58.695312 159.511719 61.738281 159.445312 61.765625 C 159.121094 61.914062 158.785156 61.988281 158.460938 61.988281 Z M 176.4375 75.238281 C 176.109375 75.238281 175.777344 75.191406 175.453125 75.074219 C 168.382812 72.664062 161.121094 74.402344 161.054688 74.421875 C 159.394531 74.824219 157.757812 73.824219 157.359375 72.191406 C 156.957031 70.558594 157.945312 68.910156 159.578125 68.5 C 159.945312 68.410156 168.609375 66.296875 177.429688 69.300781 C 179.03125 69.84375 179.878906 71.578125 179.335938 73.175781 C 178.894531 74.4375 177.710938 75.238281 176.4375 75.238281 Z M 67.332031 77.785156 C 65.644531 77.785156 64.273438 76.417969 64.273438 74.730469 C 64.273438 74.46875 64.21875 48.191406 59.804688 34.660156 C 59.277344 33.054688 60.160156 31.332031 61.761719 30.816406 C 63.355469 30.289062 65.085938 31.167969 65.613281 32.773438 C 70.328125 47.234375 70.382812 73.613281 70.382812 74.738281 C 70.390625 76.417969 69.019531 77.785156 67.332031 77.785156 Z M 67.332031 77.785156 " fill-opacity="1" fill-rule="nonzero"/><path fill="#d84864" d="M 48.675781 156.605469 C 47.269531 156.605469 45.996094 155.625 45.691406 154.199219 C 45.550781 153.550781 42.292969 138.199219 46.808594 128.183594 C 50.851562 119.21875 56.820312 115.773438 62.078125 112.742188 C 68.339844 109.128906 72.867188 106.519531 73.765625 95.3125 C 73.898438 93.636719 75.371094 92.410156 77.058594 92.519531 C 78.742188 92.652344 79.996094 94.125 79.859375 95.808594 C 78.707031 110.207031 71.808594 114.1875 65.140625 118.03125 C 60.246094 120.859375 55.621094 123.519531 52.394531 130.691406 C 48.707031 138.871094 51.648438 152.765625 51.679688 152.910156 C 52.03125 154.558594 50.988281 156.183594 49.335938 156.535156 C 49.101562 156.578125 48.890625 156.605469 48.675781 156.605469 Z M 124.570312 176.460938 C 123.507812 176.460938 122.476562 175.902344 121.90625 174.914062 C 121.070312 173.457031 121.582031 171.589844 123.050781 170.753906 C 123.171875 170.683594 134.535156 164.136719 138.21875 155.957031 C 142.054688 147.449219 140.246094 143.707031 137.511719 138.042969 C 134.984375 132.816406 131.84375 126.304688 132.765625 114.847656 C 132.894531 113.167969 134.417969 111.921875 136.054688 112.050781 C 137.738281 112.1875 138.992188 113.65625 138.855469 115.339844 C 138.074219 125.148438 140.585938 130.355469 143.019531 135.398438 C 145.992188 141.558594 148.804688 147.367188 143.804688 158.464844 C 139.289062 168.476562 126.613281 175.757812 126.082031 176.0625 C 125.597656 176.332031 125.078125 176.460938 124.570312 176.460938 Z M 124.570312 176.460938 " fill-opacity="1" fill-rule="nonzero"/><path fill="#d84864" d="M 117.773438 148.363281 C 116.898438 148.363281 116.03125 147.984375 115.425781 147.265625 C 113.039062 144.414062 112.515625 139.683594 114.132812 135.746094 C 115.636719 132.097656 118.632812 129.808594 122.378906 129.453125 C 127.5 128.964844 131.953125 124.171875 132.148438 121.304688 C 132.265625 119.621094 133.738281 118.3125 135.402344 118.460938 C 137.082031 118.578125 138.359375 120.027344 138.25 121.707031 C 137.828125 128.097656 130.394531 134.8125 122.957031 135.53125 C 121.496094 135.667969 120.433594 136.523438 119.789062 138.066406 C 118.953125 140.09375 119.3125 142.386719 120.121094 143.351562 C 121.203125 144.644531 121.027344 146.570312 119.734375 147.648438 C 119.160156 148.132812 118.46875 148.363281 117.773438 148.363281 Z M 164.855469 173.390625 C 164.628906 173.390625 164.398438 173.363281 164.171875 173.308594 C 162.519531 172.929688 161.492188 171.289062 161.878906 169.648438 C 162.109375 168.660156 161.621094 166.578125 160.277344 164.667969 C 159.109375 163.011719 157.597656 161.925781 156.246094 161.765625 C 148.964844 160.90625 140.835938 148.070312 139.554688 141.972656 C 139.203125 140.320312 140.261719 138.699219 141.914062 138.351562 C 143.582031 138.023438 145.191406 139.054688 145.539062 140.710938 C 146.675781 146.074219 153.722656 155.328125 156.96875 155.699219 C 160.113281 156.074219 163.066406 158.007812 165.277344 161.15625 C 167.527344 164.34375 168.507812 168.128906 167.839844 171.019531 C 167.503906 172.4375 166.246094 173.390625 164.855469 173.390625 Z M 146.816406 203.601562 C 146.066406 203.601562 145.308594 203.328125 144.714844 202.765625 C 143.492188 201.613281 143.4375 199.679688 144.59375 198.453125 C 148.75 194.0625 146.242188 187.429688 142.152344 183.117188 C 138.378906 179.144531 131.628906 168.488281 134.828125 160.90625 C 135.488281 159.355469 137.277344 158.640625 138.832031 159.277344 C 140.386719 159.929688 141.117188 161.71875 140.464844 163.273438 C 138.824219 167.152344 142.996094 175.128906 146.589844 178.914062 C 153.933594 186.648438 154.945312 196.394531 149.039062 202.640625 C 148.4375 203.28125 147.632812 203.601562 146.816406 203.601562 Z M 83.53125 151.71875 C 83.1875 151.71875 82.839844 151.660156 82.496094 151.542969 C 80.90625 150.96875 80.082031 149.222656 80.65625 147.636719 C 82.179688 143.425781 79.605469 140.359375 70.476562 135.496094 C 65.34375 132.769531 62.101562 128.09375 61.578125 122.683594 C 61.125 118.003906 62.824219 113.484375 66.011719 110.898438 C 67.332031 109.828125 69.246094 110.03125 70.308594 111.335938 C 71.375 112.644531 71.179688 114.566406 69.871094 115.628906 C 68.273438 116.921875 67.410156 119.460938 67.667969 122.09375 C 67.859375 124.058594 68.847656 127.707031 73.355469 130.101562 C 79.253906 133.25 90.238281 139.097656 86.410156 149.695312 C 85.957031 150.945312 84.777344 151.71875 83.53125 151.71875 Z M 77.109375 179.492188 C 76.859375 179.492188 76.613281 179.460938 76.363281 179.402344 C 69.488281 177.6875 65.257812 169.976562 67.113281 162.574219 C 68.132812 158.507812 60.710938 150.367188 57.601562 149.457031 C 49.140625 147.003906 44.6875 138.066406 45.984375 131.589844 C 46.316406 129.9375 47.894531 128.855469 49.582031 129.191406 C 51.238281 129.519531 52.308594 131.125 51.976562 132.78125 C 51.402344 135.648438 53.421875 141.882812 59.316406 143.589844 C 64.953125 145.238281 75.066406 155.96875 73.042969 164.050781 C 71.898438 168.609375 74.664062 172.679688 77.855469 173.476562 C 79.492188 173.882812 80.492188 175.542969 80.074219 177.171875 C 79.726562 178.570312 78.480469 179.492188 77.109375 179.492188 Z M 84.691406 115.78125 C 81.292969 115.78125 77.867188 114.003906 75.3125 110.855469 C 72.449219 107.320312 71.453125 103.042969 72.710938 99.679688 C 73.304688 98.089844 75.074219 97.296875 76.652344 97.890625 C 78.234375 98.480469 79.035156 100.242188 78.441406 101.820312 C 77.964844 103.085938 78.648438 105.269531 80.0625 107.015625 C 81.25 108.472656 83.199219 109.925781 85.210938 109.640625 C 86.929688 109.425781 88.441406 110.539062 88.691406 112.203125 C 88.941406 113.871094 87.792969 115.425781 86.121094 115.675781 C 85.644531 115.746094 85.167969 115.78125 84.691406 115.78125 Z M 84.691406 115.78125 " fill-opacity="1" fill-rule="nonzero"/><path fill="#d84864" d="M 74.070312 136.355469 C 72.902344 136.355469 71.714844 136.113281 70.542969 135.527344 C 69.03125 134.769531 68.421875 132.9375 69.171875 131.429688 C 69.929688 129.929688 71.757812 129.308594 73.273438 130.0625 C 74.621094 130.757812 77.132812 129.378906 79.566406 128.054688 C 83.136719 126.121094 87.191406 123.90625 91.4375 125.707031 C 92.988281 126.359375 93.722656 128.148438 93.070312 129.699219 C 92.414062 131.261719 90.621094 131.980469 89.0625 131.332031 C 87.535156 130.679688 84.964844 132.078125 82.476562 133.425781 C 80 134.769531 77.078125 136.355469 74.070312 136.355469 Z M 164.855469 196.277344 C 164.128906 196.277344 163.394531 196.023438 162.808594 195.492188 C 161.554688 194.363281 161.449219 192.441406 162.585938 191.183594 C 162.972656 190.75 163.167969 189.472656 162.742188 187.960938 C 162.238281 186.1875 160.855469 184.039062 158.480469 183.328125 C 156.40625 182.703125 154.296875 183.246094 152.0625 183.816406 C 149.300781 184.523438 146.175781 185.335938 143.007812 183.746094 C 141.496094 182.996094 140.886719 181.160156 141.636719 179.652344 C 142.398438 178.144531 144.21875 177.523438 145.742188 178.285156 C 146.800781 178.804688 148.25 178.484375 150.542969 177.898438 C 153.207031 177.222656 156.535156 176.355469 160.234375 177.484375 C 164.277344 178.695312 167.414062 181.988281 168.628906 186.3125 C 169.601562 189.789062 169.039062 193.140625 167.125 195.273438 C 166.519531 195.941406 165.6875 196.277344 164.855469 196.277344 Z M 171.886719 119.980469 C 170.691406 119.980469 169.546875 119.273438 169.0625 118.089844 C 167.003906 113.101562 164.128906 109.804688 161.574219 109.492188 C 159.492188 109.269531 157.761719 111.0625 156.613281 112.625 C 152.007812 118.894531 140.679688 118.953125 135.328125 118.105469 C 133.664062 117.84375 132.519531 116.28125 132.785156 114.613281 C 133.046875 112.949219 134.632812 111.800781 136.28125 112.074219 C 141.9375 112.96875 149.453125 112.050781 151.683594 109.011719 C 155.511719 103.804688 159.519531 103.101562 162.3125 103.433594 C 167.203125 104.023438 171.722656 108.515625 174.707031 115.761719 C 175.347656 117.320312 174.601562 119.109375 173.050781 119.742188 C 172.671875 119.914062 172.273438 119.980469 171.886719 119.980469 Z M 171.886719 119.980469 " fill-opacity="1" fill-rule="nonzero"/><g clip-path="url(#b0f4f622b6)"><path fill="#00c4cc" d="M 124.421875 182.882812 C 129.3125 182.882812 134.199219 182.882812 139.089844 182.882812 C 139.929688 182.882812 140.617188 182.320312 140.859375 181.539062 C 143.914062 171.785156 146.972656 162.027344 150.027344 152.273438 C 148.851562 152.273438 147.671875 152.273438 146.492188 152.273438 C 150.160156 162.4375 153.828125 172.597656 157.496094 182.757812 C 158.078125 184.375 160.558594 184.625 161.03125 182.757812 C 165.109375 166.703125 169.183594 150.648438 173.257812 134.59375 C 172.082031 134.59375 170.902344 134.59375 169.722656 134.59375 C 173.59375 156.542969 177.464844 178.488281 181.335938 200.4375 C 181.605469 201.972656 184.019531 202.253906 184.6875 200.875 C 187.632812 194.808594 190.578125 188.742188 193.519531 182.671875 C 194.253906 181.164062 191.242188 182.882812 193.222656 182.882812 C 195.152344 182.882812 197.082031 182.882812 199.011719 182.882812 C 202.472656 182.882812 205.929688 182.882812 209.390625 182.882812 C 211.757812 182.882812 211.757812 179.222656 209.390625 179.222656 C 203.683594 179.222656 197.980469 179.222656 192.273438 179.222656 C 191.667969 179.222656 190.964844 179.5625 190.691406 180.128906 C 187.632812 186.429688 184.578125 192.730469 181.523438 199.03125 C 182.640625 199.175781 183.757812 199.320312 184.875 199.46875 C 181 177.519531 177.128906 155.570312 173.257812 133.621094 C 172.9375 131.796875 170.148438 131.945312 169.722656 133.621094 C 165.648438 149.675781 161.570312 165.730469 157.496094 181.785156 C 158.675781 181.785156 159.855469 181.785156 161.03125 181.785156 C 157.363281 171.625 153.695312 161.464844 150.03125 151.300781 C 149.421875 149.617188 147.054688 149.503906 146.492188 151.300781 C 143.4375 161.054688 140.378906 170.8125 137.324219 180.566406 C 137.914062 180.117188 138.503906 179.671875 139.089844 179.222656 C 134.199219 179.222656 129.3125 179.222656 124.421875 179.222656 C 122.054688 179.222656 122.054688 182.882812 124.421875 182.882812 Z M 124.421875 182.882812 " fill-opacity="1" fill-rule="nonzero"/></g></svg>