<svg xmlns="http://www.w3.org/2000/svg" xmlns:xlink="http://www.w3.org/1999/xlink" width="300" zoomAndPan="magnify" viewBox="0 0 224.87999 225" height="300" preserveAspectRatio="xMidYMid meet" version="1.0"><defs><clipPath id="96382d532f"><path d="M 11.242188 0.0585938 L 213 0.0585938 L 213 202 L 11.242188 202 Z M 11.242188 0.0585938 " clip-rule="nonzero"/></clipPath><clipPath id="55393d7ba3"><path d="M 100 186 L 125 186 L 125 224.9375 L 100 224.9375 Z M 100 186 " clip-rule="nonzero"/></clipPath></defs><g clip-path="url(#96382d532f)"><path fill="#39250f" d="M 211.339844 119.128906 L 167.039062 195.894531 C 164.878906 199.683594 160.925781 201.777344 156.835938 201.8125 L 156.835938 201.878906 L 68.074219 201.878906 C 63.289062 201.878906 59.167969 199.019531 57.308594 194.929688 L 13.507812 119.03125 C 11.316406 115.242188 11.515625 110.722656 13.574219 107.199219 L 57.875 30.433594 C 60.035156 26.644531 63.988281 24.550781 68.074219 24.519531 L 68.074219 24.453125 L 83.726562 24.453125 L 74.390625 9.964844 C 72.628906 7.238281 73.425781 3.582031 76.152344 1.820312 C 78.875 0.0585938 82.53125 0.859375 84.292969 3.617188 L 97.75 24.484375 L 123.40625 24.484375 L 136.867188 3.617188 C 138.625 0.890625 142.28125 0.09375 145.007812 1.820312 C 147.730469 3.582031 148.53125 7.238281 146.800781 9.964844 L 137.464844 24.453125 L 156.871094 24.453125 C 161.65625 24.453125 165.777344 27.308594 167.636719 31.398438 L 211.4375 107.300781 C 213.566406 111.085938 213.398438 115.605469 211.339844 119.128906 Z M 46.972656 129.996094 L 177.875 129.996094 L 187.609375 113.148438 L 183.488281 106.003906 L 41.421875 106.003906 L 37.304688 113.148438 Z M 164.25 153.625 L 60.632812 153.625 L 74.820312 178.214844 L 150.058594 178.214844 Z M 55.046875 82.375 L 169.832031 82.375 L 150.058594 48.113281 L 74.820312 48.113281 Z M 55.046875 82.375 " fill-opacity="1" fill-rule="evenodd"/></g><path fill="#39250f" d="M 93.964844 75.464844 C 98.949219 75.464844 103.003906 71.410156 103.003906 66.425781 C 103.003906 61.4375 98.949219 57.386719 93.964844 57.386719 C 88.976562 57.386719 84.925781 61.4375 84.925781 66.425781 C 84.925781 71.410156 88.976562 75.464844 93.964844 75.464844 Z M 93.964844 75.464844 " fill-opacity="1" fill-rule="evenodd"/><path fill="#39250f" d="M 130.917969 75.464844 C 135.902344 75.464844 139.957031 71.410156 139.957031 66.425781 C 139.957031 61.4375 135.902344 57.386719 130.917969 57.386719 C 125.933594 57.386719 121.878906 61.4375 121.878906 66.425781 C 121.878906 71.410156 125.933594 75.464844 130.917969 75.464844 Z M 130.917969 75.464844 " fill-opacity="1" fill-rule="evenodd"/><g clip-path="url(#55393d7ba3)"><path fill="#39250f" d="M 124.269531 193.070312 C 127.660156 202.042969 116.226562 224.941406 112.671875 224.941406 C 109.082031 224.941406 97.351562 202.109375 100.644531 193.070312 C 103.898438 184.03125 120.882812 184.097656 124.269531 193.070312 Z M 124.269531 193.070312 " fill-opacity="1" fill-rule="evenodd"/></g><path fill="#f29900" d="M 187.578125 113.246094 L 37.304688 113.246094 L 46.972656 129.996094 L 177.90625 129.996094 Z M 187.578125 113.246094 " fill-opacity="1" fill-rule="evenodd"/><path fill="#f29900" d="M 159.730469 161.46875 L 65.152344 161.46875 L 74.820312 178.214844 L 150.058594 178.214844 Z M 159.730469 161.46875 " fill-opacity="1" fill-rule="evenodd"/><path fill="#ffdd38" d="M 37.304688 113.246094 L 187.578125 113.246094 L 187.609375 113.148438 L 183.488281 106.003906 L 41.390625 106.003906 L 37.269531 113.148438 Z M 37.304688 113.246094 " fill-opacity="1" fill-rule="evenodd"/><path fill="#ffdd38" d="M 164.25 153.625 L 60.632812 153.625 L 65.152344 161.46875 L 159.730469 161.46875 Z M 164.25 153.625 " fill-opacity="1" fill-rule="evenodd"/><path fill="#ffdd38" d="M 55.046875 82.375 L 169.832031 82.375 L 150.058594 48.113281 L 74.820312 48.113281 Z M 130.917969 75.464844 C 125.933594 75.464844 121.878906 71.410156 121.878906 66.425781 C 121.878906 61.4375 125.933594 57.386719 130.917969 57.386719 C 135.902344 57.386719 139.957031 61.4375 139.957031 66.425781 C 139.957031 71.410156 135.902344 75.464844 130.917969 75.464844 Z M 103.003906 66.425781 C 103.003906 71.410156 98.949219 75.464844 93.964844 75.464844 C 88.976562 75.464844 84.925781 71.410156 84.925781 66.425781 C 84.925781 61.4375 88.976562 57.386719 93.964844 57.386719 C 98.980469 57.386719 103.003906 61.40625 103.003906 66.425781 Z M 103.003906 66.425781 " fill-opacity="1" fill-rule="evenodd"/></svg>