<svg xmlns="http://www.w3.org/2000/svg" xmlns:xlink="http://www.w3.org/1999/xlink" width="300" zoomAndPan="magnify" viewBox="0 0 224.87999 225" height="300" preserveAspectRatio="xMidYMid meet" version="1.0"><defs><clipPath id="70c80bef15"><path d="M 87 70.59375 L 139 70.59375 L 139 144 L 87 144 Z M 87 70.59375 " clip-rule="nonzero"/></clipPath><clipPath id="1e94e18024"><path d="M 12.773438 1.296875 L 212.167969 1.296875 L 212.167969 223.929688 L 12.773438 223.929688 Z M 12.773438 1.296875 " clip-rule="nonzero"/></clipPath></defs><g clip-path="url(#70c80bef15)"><path fill="#f4abba" d="M 137.507812 137.292969 L 120.574219 119.355469 L 120.574219 77.917969 C 120.574219 73.875 117.296875 70.59375 113.253906 70.59375 C 109.210938 70.59375 105.929688 73.875 105.929688 77.917969 L 105.929688 119.355469 L 88.996094 137.296875 C 87.414062 138.558594 87.160156 140.859375 88.425781 142.441406 C 89.148438 143.34375 90.210938 143.8125 91.285156 143.8125 C 92.085938 143.8125 92.894531 143.550781 93.570312 143.011719 C 93.574219 143.011719 105.929688 129.167969 113.253906 129.167969 C 120.574219 129.167969 132.933594 143.011719 132.933594 143.011719 C 133.609375 143.550781 134.414062 143.8125 135.21875 143.8125 C 136.292969 143.8125 137.355469 143.339844 138.082031 142.4375 C 139.34375 140.859375 139.085938 138.554688 137.507812 137.292969 Z M 137.507812 137.292969 " fill-opacity="1" fill-rule="nonzero"/></g><path fill="#ea596e" d="M 138.082031 138.777344 C 137.355469 139.679688 136.292969 140.152344 135.21875 140.152344 C 134.414062 140.152344 133.609375 139.890625 132.933594 139.347656 C 132.933594 139.347656 120.574219 125.507812 113.253906 125.507812 C 105.929688 125.507812 93.574219 139.347656 93.574219 139.347656 C 92.894531 139.890625 92.089844 140.152344 91.285156 140.152344 C 90.210938 140.152344 89.144531 139.683594 88.425781 138.777344 C 88.304688 138.625 88.265625 138.445312 88.167969 138.28125 C 87.402344 139.554688 87.441406 141.207031 88.425781 142.4375 C 89.148438 143.34375 90.210938 143.8125 91.285156 143.8125 C 92.085938 143.8125 92.894531 143.550781 93.570312 143.011719 C 93.574219 143.011719 105.929688 129.167969 113.253906 129.167969 C 120.574219 129.167969 132.933594 143.011719 132.933594 143.011719 C 133.609375 143.550781 134.414062 143.8125 135.21875 143.8125 C 136.292969 143.8125 137.355469 143.339844 138.082031 142.4375 C 139.0625 141.207031 139.097656 139.554688 138.335938 138.28125 C 138.242188 138.445312 138.203125 138.628906 138.082031 138.777344 Z M 138.082031 138.777344 " fill-opacity="1" fill-rule="nonzero"/><path fill="#dd2e44" d="M 96.265625 99.964844 C 93.292969 90.242188 82.054688 87.421875 66.683594 107.796875 C 59.941406 116.734375 53.667969 131.9375 53.871094 147.101562 C 54.070312 161.730469 48.632812 171.953125 53.632812 185.871094 C 55.953125 192.320312 76.039062 196.527344 90.828125 187.394531 C 97.019531 183.570312 101.050781 179.132812 99.960938 172.824219 C 98.179688 162.476562 98.148438 155.09375 99.527344 141.507812 C 101.265625 124.324219 99.789062 111.519531 96.265625 99.964844 Z M 96.265625 99.964844 " fill-opacity="1" fill-rule="nonzero"/><path fill="#ea596e" d="M 96.265625 99.964844 C 93.292969 90.242188 82.054688 87.421875 66.683594 107.796875 C 59.941406 116.734375 53.667969 131.9375 53.871094 147.101562 C 54.070312 161.730469 48.632812 171.953125 53.632812 185.871094 C 59.292969 176.953125 75.601562 186.523438 90.394531 177.390625 C 96.585938 173.566406 98.742188 164.355469 98.605469 160.207031 C 98.425781 154.847656 98.753906 149.164062 99.53125 141.503906 C 101.265625 124.324219 99.789062 111.519531 96.265625 99.964844 Z M 96.265625 99.964844 " fill-opacity="1" fill-rule="nonzero"/><path fill="#dd2e44" d="M 127.898438 100.15625 C 128.046875 89.988281 138.894531 88.65625 155.207031 103.664062 C 164.300781 112.023438 170.015625 128.398438 173.042969 146.070312 C 176.089844 163.847656 174.460938 183.34375 172.609375 188.261719 C 170.359375 194.222656 152.941406 196.660156 140.851562 188.695312 C 133.0625 183.570312 128.203125 174.554688 129.757812 163.90625 C 133.890625 135.632812 127.367188 137.371094 127.898438 100.15625 Z M 127.898438 100.15625 " fill-opacity="1" fill-rule="nonzero"/><path fill="#ea596e" d="M 127.898438 100.15625 C 128.046875 89.988281 138.894531 88.65625 155.207031 103.664062 C 164.300781 112.023438 170.015625 128.398438 173.042969 146.070312 C 176.089844 163.847656 174.460938 183.34375 172.609375 188.261719 C 171.519531 176.953125 159.121094 183.042969 145.855469 177.167969 C 141.867188 175.40625 140.308594 173.78125 140.632812 164.988281 C 141.070312 153.246094 131.121094 156.941406 131.121094 149.101562 C 131.125 134.566406 127.480469 129.34375 127.898438 100.15625 Z M 119.660156 79.804688 C 119.191406 79.804688 118.726562 79.617188 118.386719 79.238281 C 118.34375 79.191406 116.761719 77.585938 113.253906 77.585938 C 109.746094 77.585938 108.167969 79.1875 108.101562 79.257812 C 107.453125 79.933594 106.375 79.972656 105.691406 79.335938 C 105.007812 78.699219 104.949219 77.644531 105.574219 76.949219 C 105.832031 76.664062 108.222656 74.164062 113.253906 74.164062 C 118.285156 74.164062 120.675781 76.664062 120.933594 76.945312 C 121.566406 77.648438 121.507812 78.734375 120.804688 79.367188 C 120.480469 79.660156 120.066406 79.804688 119.660156 79.804688 Z M 119.660156 90.789062 C 119.191406 90.789062 118.726562 90.597656 118.386719 90.222656 C 118.34375 90.171875 116.761719 88.570312 113.253906 88.570312 C 109.746094 88.570312 108.167969 90.167969 108.101562 90.238281 C 107.453125 90.917969 106.375 90.957031 105.691406 90.320312 C 105.007812 89.683594 104.949219 88.628906 105.574219 87.933594 C 105.832031 87.648438 108.222656 85.148438 113.253906 85.148438 C 118.285156 85.148438 120.675781 87.648438 120.933594 87.929688 C 121.566406 88.632812 121.507812 89.714844 120.804688 90.347656 C 120.480469 90.640625 120.066406 90.789062 119.660156 90.789062 Z M 119.660156 101.769531 C 119.191406 101.769531 118.726562 101.582031 118.386719 101.203125 C 118.34375 101.15625 116.761719 99.550781 113.253906 99.550781 C 109.746094 99.550781 108.167969 101.152344 108.101562 101.222656 C 107.453125 101.894531 106.375 101.9375 105.691406 101.300781 C 105.007812 100.664062 104.949219 99.609375 105.574219 98.914062 C 105.832031 98.628906 108.222656 96.128906 113.253906 96.128906 C 118.285156 96.128906 120.675781 98.628906 120.933594 98.910156 C 121.566406 99.613281 121.507812 100.699219 120.804688 101.332031 C 120.480469 101.625 120.066406 101.769531 119.660156 101.769531 Z M 119.660156 112.753906 C 119.191406 112.753906 118.726562 112.5625 118.386719 112.1875 C 118.34375 112.136719 116.761719 110.535156 113.253906 110.535156 C 109.746094 110.535156 108.167969 112.132812 108.101562 112.203125 C 107.453125 112.882812 106.375 112.921875 105.691406 112.285156 C 105.007812 111.648438 104.949219 110.59375 105.574219 109.898438 C 105.832031 109.613281 108.222656 107.113281 113.253906 107.113281 C 118.285156 107.113281 120.675781 109.613281 120.933594 109.894531 C 121.566406 110.597656 121.507812 111.679688 120.804688 112.3125 C 120.480469 112.605469 120.066406 112.753906 119.660156 112.753906 Z M 119.660156 112.753906 " fill-opacity="1" fill-rule="nonzero"/><path fill="#fbcb1c" d="M 197.890625 50.878906 L 123.085938 12.136719 C 120.15625 10.621094 116.417969 9.785156 112.605469 9.785156 C 108.792969 9.785156 105.015625 10.609375 102.097656 12.128906 L 27.097656 50.808594 C 21.035156 53.941406 16.304688 60.761719 16.304688 67.019531 C 16.304688 67.019531 16.304688 75.082031 16.304688 75.082031 C 16.304688 81.6875 46.816406 78.546875 49.992188 77.390625 C 60.324219 73.625 67.636719 69.4375 79.101562 73.910156 C 89.257812 77.875 92.105469 86.984375 89.382812 96.230469 C 87.664062 102.070312 85.464844 118.15625 96.332031 118.15625 C 104.363281 118.15625 105.324219 107.273438 104.792969 102.453125 C 104.148438 96.675781 101.660156 91.878906 102.980469 86.078125 C 104.628906 78.839844 115.011719 64.621094 129.359375 70.136719 C 133.210938 71.613281 137.910156 74.769531 139.898438 77.441406 C 142.566406 81.027344 145.800781 85.148438 146.382812 89.125 C 148.335938 102.433594 134.175781 138.203125 153.925781 138.203125 C 170.171875 138.203125 161.949219 107.625 160.417969 97.449219 C 159.511719 91.402344 160.394531 82.742188 164.460938 77.167969 C 165.53125 75.699219 167.582031 74.121094 169.511719 73.710938 C 173.746094 72.816406 178.328125 75.394531 180.714844 78.363281 C 182.890625 81.078125 184.328125 85.03125 188.429688 85.816406 C 190.722656 86.257812 193.199219 85.933594 194.761719 84.183594 C 197.65625 80.941406 200.972656 75.320312 202.371094 71.722656 C 204.601562 66.054688 202.652344 61.09375 203.460938 55.253906 C 201.886719 53.476562 199.980469 51.957031 197.890625 50.878906 " fill-opacity="1" fill-rule="nonzero"/><g clip-path="url(#1e94e18024)"><path fill="#fbcb1c" d="M 202.714844 157.535156 C 202.714844 161.535156 200.0625 166.464844 196.597656 168.460938 L 118.96875 213.3125 C 115.507812 215.3125 109.878906 215.3125 106.402344 213.3125 L 28.726562 168.394531 C 25.253906 166.382812 22.175781 161.464844 22.175781 157.457031 L 21.949219 79.25 L 21.949219 67.675781 C 21.949219 63.675781 25.039062 58.757812 28.511719 56.75 L 106.347656 11.898438 C 109.820312 9.886719 115.554688 9.886719 119.03125 11.898438 L 196.394531 56.816406 C 199.867188 58.828125 202.371094 63.746094 202.371094 67.753906 L 202.371094 74.308594 Z M 207.097656 54.035156 C 205.464844 51.96875 203.5 50.207031 201.332031 48.957031 L 123.632812 4.039062 C 120.589844 2.277344 116.746094 1.3125 112.78125 1.3125 C 108.820312 1.3125 104.976562 2.265625 101.945312 4.027344 L 23.933594 48.878906 C 17.636719 52.511719 12.773438 60.417969 12.773438 67.675781 L 12.773438 77.023438 L 13.0625 157.457031 C 13.0625 164.714844 17.773438 172.628906 24.046875 176.253906 L 101.835938 221.183594 C 104.878906 222.933594 108.761719 223.898438 112.722656 223.898438 C 116.683594 223.898438 120.550781 222.933594 123.582031 221.183594 L 201.300781 176.332031 C 207.589844 172.699219 212.15625 164.792969 212.15625 157.535156 L 212.179688 67.753906 C 212.179688 62.996094 210.21875 57.964844 207.097656 54.035156 " fill-opacity="1" fill-rule="nonzero"/></g></svg>