<svg xmlns="http://www.w3.org/2000/svg" xmlns:xlink="http://www.w3.org/1999/xlink" width="300" zoomAndPan="magnify" viewBox="0 0 224.87999 225" height="300" preserveAspectRatio="xMidYMid meet" version="1.0"><defs><clipPath id="bffb45eeb5"><path d="M 99 205 L 135 205 L 135 221.75 L 99 221.75 Z M 99 205 " clip-rule="nonzero"/></clipPath><clipPath id="b2a82957c5"><path d="M 56 205 L 92 205 L 92 221.75 L 56 221.75 Z M 56 205 " clip-rule="nonzero"/></clipPath><clipPath id="329bd579ce"><path d="M 22.488281 175 L 92 175 L 92 206 L 22.488281 206 Z M 22.488281 175 " clip-rule="nonzero"/></clipPath><clipPath id="55f01a48a7"><path d="M 88 64 L 103 64 L 103 221.75 L 88 221.75 Z M 88 64 " clip-rule="nonzero"/></clipPath><clipPath id="872b195cc1"><path d="M 46 3.617188 L 145 3.617188 L 145 72 L 46 72 Z M 46 3.617188 " clip-rule="nonzero"/></clipPath><clipPath id="6212362cde"><path d="M 101 205 L 136 205 L 136 221.75 L 101 221.75 Z M 101 205 " clip-rule="nonzero"/></clipPath><clipPath id="4606df6bbd"><path d="M 100 175 L 170.160156 175 L 170.160156 206 L 100 206 Z M 100 175 " clip-rule="nonzero"/></clipPath><clipPath id="03cab01241"><path d="M 58 205 L 94 205 L 94 221.75 L 58 221.75 Z M 58 205 " clip-rule="nonzero"/></clipPath><clipPath id="ff62ac896f"><path d="M 90 64 L 105 64 L 105 221.75 L 90 221.75 Z M 90 64 " clip-rule="nonzero"/></clipPath><clipPath id="47f93c7458"><path d="M 48 3.617188 L 146 3.617188 L 146 72 L 48 72 Z M 48 3.617188 " clip-rule="nonzero"/></clipPath><clipPath id="73cbfb9b8c"><path d="M 154 42 L 205 42 L 205 121 L 154 121 Z M 154 42 " clip-rule="nonzero"/></clipPath><clipPath id="7e80af845a"><path d="M 199.316406 121.484375 L 148.0625 47.5625 L 169.007812 33.039062 L 220.261719 106.960938 Z M 199.316406 121.484375 " clip-rule="nonzero"/></clipPath><clipPath id="993f2d1d24"><path d="M 199.316406 121.484375 L 148.0625 47.5625 L 169.007812 33.039062 L 220.261719 106.960938 Z M 199.316406 121.484375 " clip-rule="nonzero"/></clipPath><clipPath id="42738740cf"><path d="M 199.316406 121.484375 L 148.0625 47.5625 L 169.007812 33.039062 L 220.261719 106.960938 Z M 199.316406 121.484375 " clip-rule="nonzero"/></clipPath><clipPath id="e50136dc49"><path d="M 200 103 L 202 103 L 202 104 L 200 104 Z M 200 103 " clip-rule="nonzero"/></clipPath><clipPath id="2534829a3b"><path d="M 199.316406 121.484375 L 148.0625 47.5625 L 169.007812 33.039062 L 220.261719 106.960938 Z M 199.316406 121.484375 " clip-rule="nonzero"/></clipPath><clipPath id="e6221e9b2b"><path d="M 199.316406 121.484375 L 148.0625 47.5625 L 169.007812 33.039062 L 220.261719 106.960938 Z M 199.316406 121.484375 " clip-rule="nonzero"/></clipPath><clipPath id="6d449ef995"><path d="M 199.316406 121.484375 L 148.0625 47.5625 L 169.007812 33.039062 L 220.261719 106.960938 Z M 199.316406 121.484375 " clip-rule="nonzero"/></clipPath></defs><path fill="#261129" d="M 102.515625 90.144531 L 114.988281 90.144531 C 119.714844 90.144531 124.183594 91.894531 127.675781 95.046875 L 130.910156 112.808594 C 132.273438 120.222656 137.847656 126.058594 145.171875 127.761719 L 159.007812 130.957031 C 159.261719 131 159.472656 131.042969 159.730469 131.042969 C 161.175781 131.042969 162.496094 130.0625 162.835938 128.574219 C 163.21875 126.867188 162.15625 125.121094 160.453125 124.738281 L 146.617188 121.542969 C 141.765625 120.4375 138.105469 116.558594 137.210938 111.660156 L 135.550781 102.628906 C 140.019531 106.164062 145.46875 108.082031 151.257812 108.082031 L 160.707031 108.082031 C 162.453125 108.082031 163.902344 106.632812 163.902344 104.886719 C 163.902344 103.140625 162.453125 101.691406 160.707031 101.691406 L 151.257812 101.691406 C 146.191406 101.691406 141.46875 99.730469 137.890625 96.152344 L 132.910156 91.167969 C 128.144531 86.398438 121.757812 83.757812 115.03125 83.757812 L 102.558594 83.757812 C 100.816406 83.757812 99.367188 85.203125 99.367188 86.953125 C 99.367188 88.699219 100.773438 90.144531 102.515625 90.144531 Z M 102.515625 90.144531 " fill-opacity="1" fill-rule="nonzero"/><path fill="#261129" d="M 102.515625 108.082031 L 110.519531 108.082031 C 111.839844 108.082031 113.117188 108.59375 114.054688 109.53125 L 117.375 112.851562 C 118.011719 113.492188 118.820312 113.789062 119.628906 113.789062 C 120.4375 113.789062 121.246094 113.492188 121.886719 112.851562 C 123.121094 111.617188 123.121094 109.574219 121.886719 108.335938 L 118.566406 105.015625 C 116.394531 102.839844 113.542969 101.691406 110.519531 101.691406 L 102.515625 101.691406 C 100.773438 101.691406 99.324219 103.140625 99.324219 104.886719 C 99.324219 106.632812 100.773438 108.082031 102.515625 108.082031 Z M 102.515625 108.082031 " fill-opacity="1" fill-rule="nonzero"/><path fill="#261129" d="M 102.515625 195.160156 L 110.519531 195.160156 C 111.839844 195.160156 113.117188 195.671875 114.054688 196.648438 L 117.375 199.972656 C 118.011719 200.613281 118.820312 200.910156 119.628906 200.910156 C 120.4375 200.910156 121.246094 200.613281 121.886719 199.972656 C 123.121094 198.738281 123.121094 196.691406 121.886719 195.457031 L 118.566406 192.132812 C 116.394531 189.960938 113.542969 188.8125 110.519531 188.8125 L 102.515625 188.8125 C 100.773438 188.8125 99.324219 190.261719 99.324219 192.007812 C 99.324219 193.753906 100.773438 195.160156 102.515625 195.160156 Z M 102.515625 195.160156 " fill-opacity="1" fill-rule="nonzero"/><path fill="#261129" d="M 102.515625 128.914062 L 112.988281 128.914062 C 115.246094 128.914062 117.375 129.808594 118.992188 131.382812 L 124.566406 136.964844 C 127.378906 139.777344 131.082031 141.3125 135.082031 141.3125 L 144.234375 141.3125 C 145.980469 141.3125 147.425781 139.863281 147.425781 138.117188 C 147.425781 136.367188 145.980469 134.921875 144.234375 134.921875 L 135.082031 134.921875 C 132.828125 134.921875 130.699219 134.027344 129.082031 132.449219 L 123.503906 126.867188 C 120.695312 124.058594 116.992188 122.523438 112.988281 122.523438 L 102.515625 122.523438 C 100.773438 122.523438 99.324219 123.972656 99.324219 125.71875 C 99.324219 127.464844 100.773438 128.914062 102.515625 128.914062 Z M 102.515625 128.914062 " fill-opacity="1" fill-rule="nonzero"/><path fill="#261129" d="M 102.515625 154.730469 L 112.988281 154.730469 C 115.246094 154.730469 117.375 155.625 118.992188 157.199219 L 124.566406 162.78125 C 127.378906 165.59375 131.082031 167.128906 135.082031 167.128906 L 144.234375 167.128906 C 145.980469 167.128906 147.425781 165.679688 147.425781 163.933594 C 147.425781 162.183594 145.980469 160.738281 144.234375 160.738281 L 135.082031 160.738281 C 132.828125 160.738281 130.699219 159.84375 129.082031 158.265625 L 125.546875 154.730469 L 131.632812 154.730469 C 133.378906 154.730469 134.828125 153.28125 134.828125 151.535156 C 134.828125 149.789062 133.378906 148.339844 131.632812 148.339844 L 102.515625 148.339844 C 100.773438 148.339844 99.324219 149.789062 99.324219 151.535156 C 99.324219 153.28125 100.773438 154.730469 102.515625 154.730469 Z M 102.515625 154.730469 " fill-opacity="1" fill-rule="nonzero"/><g clip-path="url(#bffb45eeb5)"><path fill="#261129" d="M 130.867188 215.351562 L 124.566406 215.351562 C 123.460938 215.351562 122.441406 214.882812 121.757812 214.03125 L 117.882812 209.261719 C 115.96875 206.917969 113.160156 205.554688 110.09375 205.554688 L 102.476562 205.554688 C 100.730469 205.554688 99.28125 207.003906 99.28125 208.75 C 99.28125 210.496094 100.730469 211.945312 102.476562 211.945312 L 110.09375 211.945312 C 111.203125 211.945312 112.222656 212.414062 112.902344 213.265625 L 116.777344 218.035156 C 118.695312 220.378906 121.503906 221.742188 124.566406 221.742188 L 130.867188 221.742188 C 132.613281 221.742188 134.0625 220.292969 134.0625 218.546875 C 134.0625 216.800781 132.613281 215.351562 130.867188 215.351562 Z M 130.867188 215.351562 " fill-opacity="1" fill-rule="nonzero"/></g><path fill="#261129" d="M 165.222656 199.375 L 155.429688 199.375 C 153.386719 199.375 151.429688 198.566406 149.980469 197.117188 L 146.746094 193.882812 L 153.003906 193.882812 C 154.75 193.882812 156.195312 192.433594 156.195312 190.6875 C 156.195312 188.9375 154.75 187.492188 153.003906 187.492188 L 143.851562 187.492188 C 141.59375 187.492188 139.46875 186.597656 137.847656 185.019531 L 132.273438 179.4375 C 129.464844 176.628906 125.761719 175.09375 121.757812 175.09375 L 102.433594 175.09375 C 100.6875 175.09375 99.238281 176.542969 99.238281 178.289062 C 99.238281 180.035156 100.6875 181.484375 102.433594 181.484375 L 121.757812 181.484375 C 124.015625 181.484375 126.144531 182.378906 127.761719 183.953125 L 145.382812 201.59375 C 148.023438 204.234375 151.597656 205.722656 155.34375 205.722656 L 165.136719 205.722656 C 166.882812 205.722656 168.328125 204.277344 168.328125 202.527344 C 168.328125 200.78125 166.964844 199.375 165.222656 199.375 Z M 165.222656 199.375 " fill-opacity="1" fill-rule="nonzero"/><path fill="#261129" d="M 102.515625 168.105469 L 110.308594 168.105469 C 112.054688 168.105469 113.5 166.660156 113.5 164.910156 C 113.5 163.164062 112.054688 161.71875 110.308594 161.71875 L 102.515625 161.71875 C 100.773438 161.71875 99.324219 163.164062 99.324219 164.910156 C 99.324219 166.660156 100.773438 168.105469 102.515625 168.105469 Z M 102.515625 168.105469 " fill-opacity="1" fill-rule="nonzero"/><path fill="#261129" d="M 88.34375 90.144531 L 75.871094 90.144531 C 71.144531 90.144531 66.675781 91.894531 63.183594 95.046875 L 59.949219 112.808594 C 58.585938 120.222656 53.011719 126.058594 45.6875 127.761719 L 31.851562 130.957031 C 31.597656 131 31.386719 131.042969 31.128906 131.042969 C 29.683594 131.042969 28.363281 130.0625 28.023438 128.574219 C 27.640625 126.867188 28.703125 125.121094 30.40625 124.738281 L 44.242188 121.542969 C 49.09375 120.4375 52.753906 116.558594 53.648438 111.660156 L 55.308594 102.628906 C 50.839844 106.164062 45.390625 108.082031 39.601562 108.082031 L 30.148438 108.082031 C 28.40625 108.082031 26.957031 106.632812 26.957031 104.886719 C 26.957031 103.140625 28.40625 101.691406 30.148438 101.691406 L 39.601562 101.691406 C 44.667969 101.691406 49.390625 99.730469 52.96875 96.152344 L 57.949219 91.167969 C 62.714844 86.398438 69.101562 83.757812 75.828125 83.757812 L 88.300781 83.757812 C 90.042969 83.757812 91.492188 85.203125 91.492188 86.953125 C 91.492188 88.699219 90.085938 90.144531 88.34375 90.144531 Z M 88.34375 90.144531 " fill-opacity="1" fill-rule="nonzero"/><path fill="#261129" d="M 88.34375 108.082031 L 80.339844 108.082031 C 79.019531 108.082031 77.742188 108.59375 76.804688 109.53125 L 73.484375 112.851562 C 72.847656 113.492188 72.039062 113.789062 71.230469 113.789062 C 70.421875 113.789062 69.613281 113.492188 68.972656 112.851562 C 67.738281 111.617188 67.738281 109.574219 68.972656 108.335938 L 72.292969 105.015625 C 74.464844 102.839844 77.316406 101.691406 80.339844 101.691406 L 88.34375 101.691406 C 90.085938 101.691406 91.535156 103.140625 91.535156 104.886719 C 91.535156 106.632812 90.085938 108.082031 88.34375 108.082031 Z M 88.34375 108.082031 " fill-opacity="1" fill-rule="nonzero"/><path fill="#261129" d="M 88.34375 195.160156 L 80.339844 195.160156 C 79.019531 195.160156 77.742188 195.671875 76.804688 196.648438 L 73.484375 199.972656 C 72.847656 200.613281 72.039062 200.910156 71.230469 200.910156 C 70.421875 200.910156 69.613281 200.613281 68.972656 199.972656 C 67.738281 198.738281 67.738281 196.691406 68.972656 195.457031 L 72.292969 192.132812 C 74.464844 189.960938 77.316406 188.8125 80.339844 188.8125 L 88.34375 188.8125 C 90.085938 188.8125 91.535156 190.261719 91.535156 192.007812 C 91.535156 193.753906 90.085938 195.160156 88.34375 195.160156 Z M 88.34375 195.160156 " fill-opacity="1" fill-rule="nonzero"/><path fill="#261129" d="M 88.34375 128.914062 L 77.871094 128.914062 C 75.613281 128.914062 73.484375 129.808594 71.867188 131.382812 L 66.332031 136.964844 C 63.523438 139.777344 59.820312 141.3125 55.820312 141.3125 L 46.667969 141.3125 C 44.921875 141.3125 43.472656 139.863281 43.472656 138.117188 C 43.472656 136.367188 44.921875 134.921875 46.667969 134.921875 L 55.820312 134.921875 C 58.074219 134.921875 60.203125 134.027344 61.820312 132.449219 L 67.398438 126.867188 C 70.207031 124.058594 73.910156 122.523438 77.914062 122.523438 L 88.382812 122.523438 C 90.128906 122.523438 91.578125 123.972656 91.578125 125.71875 C 91.578125 127.464844 90.085938 128.914062 88.34375 128.914062 Z M 88.34375 128.914062 " fill-opacity="1" fill-rule="nonzero"/><path fill="#261129" d="M 88.34375 154.730469 L 77.871094 154.730469 C 75.613281 154.730469 73.484375 155.625 71.867188 157.199219 L 66.292969 162.78125 C 63.480469 165.59375 59.777344 167.128906 55.777344 167.128906 L 46.625 167.128906 C 44.878906 167.128906 43.433594 165.679688 43.433594 163.933594 C 43.433594 162.183594 44.878906 160.738281 46.625 160.738281 L 55.777344 160.738281 C 58.03125 160.738281 60.160156 159.84375 61.777344 158.265625 L 65.3125 154.730469 L 59.226562 154.730469 C 57.480469 154.730469 56.03125 153.28125 56.03125 151.535156 C 56.03125 149.789062 57.480469 148.339844 59.226562 148.339844 L 88.34375 148.339844 C 90.085938 148.339844 91.535156 149.789062 91.535156 151.535156 C 91.535156 153.28125 90.085938 154.730469 88.34375 154.730469 Z M 88.34375 154.730469 " fill-opacity="1" fill-rule="nonzero"/><g clip-path="url(#b2a82957c5)"><path fill="#261129" d="M 59.992188 215.351562 L 66.292969 215.351562 C 67.398438 215.351562 68.417969 214.882812 69.101562 214.03125 L 72.976562 209.261719 C 74.890625 206.917969 77.699219 205.554688 80.765625 205.554688 L 88.382812 205.554688 C 90.128906 205.554688 91.578125 207.003906 91.578125 208.75 C 91.578125 210.496094 90.128906 211.945312 88.382812 211.945312 L 80.765625 211.945312 C 79.65625 211.945312 78.636719 212.414062 77.957031 213.265625 L 74.082031 218.035156 C 72.164062 220.378906 69.355469 221.742188 66.292969 221.742188 L 59.992188 221.742188 C 58.246094 221.742188 56.796875 220.292969 56.796875 218.546875 C 56.796875 216.800781 58.246094 215.351562 59.992188 215.351562 Z M 59.992188 215.351562 " fill-opacity="1" fill-rule="nonzero"/></g><g clip-path="url(#329bd579ce)"><path fill="#261129" d="M 25.636719 199.375 L 35.429688 199.375 C 37.472656 199.375 39.429688 198.566406 40.878906 197.117188 L 44.113281 193.882812 L 37.855469 193.882812 C 36.109375 193.882812 34.664062 192.433594 34.664062 190.6875 C 34.664062 188.9375 36.109375 187.492188 37.855469 187.492188 L 46.964844 187.492188 C 49.222656 187.492188 51.351562 186.597656 52.96875 185.019531 L 58.542969 179.4375 C 61.351562 176.628906 65.058594 175.09375 69.058594 175.09375 L 88.382812 175.09375 C 90.128906 175.09375 91.578125 176.542969 91.578125 178.289062 C 91.578125 180.035156 90.128906 181.484375 88.382812 181.484375 L 69.058594 181.484375 C 66.800781 181.484375 64.671875 182.378906 63.054688 183.953125 L 45.433594 201.59375 C 42.792969 204.234375 39.21875 205.722656 35.472656 205.722656 L 25.679688 205.722656 C 23.933594 205.722656 22.488281 204.277344 22.488281 202.527344 C 22.488281 200.78125 23.894531 199.375 25.636719 199.375 Z M 25.636719 199.375 " fill-opacity="1" fill-rule="nonzero"/></g><path fill="#261129" d="M 88.34375 168.105469 L 80.550781 168.105469 C 78.804688 168.105469 77.359375 166.660156 77.359375 164.910156 C 77.359375 163.164062 78.804688 161.71875 80.550781 161.71875 L 88.34375 161.71875 C 90.085938 161.71875 91.535156 163.164062 91.535156 164.910156 C 91.535156 166.660156 90.085938 168.105469 88.34375 168.105469 Z M 88.34375 168.105469 " fill-opacity="1" fill-rule="nonzero"/><g clip-path="url(#55f01a48a7)"><path fill="#261129" d="M 99.113281 221.742188 L 91.746094 221.742188 C 89.875 221.742188 88.34375 220.207031 88.34375 218.335938 L 88.34375 64.796875 L 102.515625 64.796875 L 102.515625 218.335938 C 102.515625 220.207031 100.984375 221.742188 99.113281 221.742188 Z M 99.113281 221.742188 " fill-opacity="1" fill-rule="nonzero"/></g><g clip-path="url(#872b195cc1)"><path fill="#261129" d="M 139.679688 41.664062 L 143.296875 38.640625 C 143.851562 36.980469 144.191406 35.191406 144.191406 33.316406 C 144.191406 26.710938 140.320312 21.046875 134.699219 18.449219 C 132.613281 10.949219 125.761719 5.453125 117.628906 5.453125 C 116.011719 5.453125 114.394531 5.667969 112.902344 6.09375 C 110.351562 4.515625 107.414062 3.621094 104.304688 3.621094 C 102.304688 3.621094 100.390625 3.964844 98.644531 4.644531 L 95.449219 8.308594 L 92.257812 4.644531 C 90.46875 3.964844 88.554688 3.621094 86.554688 3.621094 C 83.402344 3.621094 80.464844 4.515625 77.996094 6.050781 C 76.507812 5.625 74.890625 5.410156 73.273438 5.410156 C 65.140625 5.410156 58.246094 10.90625 56.203125 18.40625 C 50.582031 21.003906 46.710938 26.710938 46.710938 33.273438 C 46.710938 35.148438 47.007812 36.9375 47.605469 38.597656 L 51.773438 41.539062 L 47.519531 44.988281 C 47.007812 46.4375 46.710938 48.011719 46.710938 49.675781 C 46.710938 57.515625 53.050781 63.859375 60.886719 63.859375 C 61.140625 63.859375 61.394531 63.859375 61.652344 63.859375 C 63.226562 67.78125 67.058594 70.59375 71.527344 70.59375 C 73.570312 70.59375 75.484375 69.996094 77.105469 69.015625 C 79.488281 70.847656 82.46875 71.914062 85.703125 71.914062 C 88.085938 71.914062 90.300781 71.316406 92.257812 70.292969 L 95.449219 66.160156 L 98.644531 70.292969 C 100.601562 71.316406 102.816406 71.914062 105.199219 71.914062 C 108.433594 71.914062 111.414062 70.804688 113.796875 69.015625 C 115.414062 70.039062 117.332031 70.59375 119.375 70.59375 C 123.84375 70.59375 127.675781 67.824219 129.25 63.859375 C 129.507812 63.859375 129.761719 63.859375 130.015625 63.859375 C 137.847656 63.859375 144.191406 57.515625 144.191406 49.675781 C 144.191406 48.011719 143.894531 46.480469 143.382812 44.988281 Z M 139.679688 41.664062 " fill-opacity="1" fill-rule="nonzero"/></g><path fill="#261129" d="M 139.679688 41.664062 L 143.296875 38.640625 C 143.851562 36.980469 144.191406 35.191406 144.191406 33.316406 C 144.191406 26.710938 140.320312 21.046875 134.699219 18.449219 C 132.742188 11.292969 126.398438 5.964844 118.734375 5.496094 C 124.441406 12.910156 127.847656 22.15625 127.847656 32.25 C 127.847656 49.675781 117.671875 64.714844 102.984375 71.785156 C 103.710938 71.914062 104.476562 71.957031 105.242188 71.957031 C 108.476562 71.957031 111.457031 70.847656 113.839844 69.058594 C 115.457031 70.082031 117.375 70.636719 119.417969 70.636719 C 123.886719 70.636719 127.71875 67.867188 129.292969 63.902344 C 129.546875 63.902344 129.804688 63.902344 130.058594 63.902344 C 137.890625 63.902344 144.234375 57.554688 144.234375 49.71875 C 144.234375 48.054688 143.9375 46.523438 143.425781 45.03125 Z M 139.679688 41.664062 " fill-opacity="1" fill-rule="nonzero"/><path fill="#261129" d="M 66.675781 32.25 C 64.929688 32.25 63.480469 30.800781 63.480469 29.054688 C 63.480469 23.390625 68.078125 18.746094 73.742188 18.746094 C 75.484375 18.746094 76.933594 20.195312 76.933594 21.941406 C 76.933594 23.6875 75.484375 25.136719 73.742188 25.136719 C 71.613281 25.136719 69.867188 26.882812 69.867188 29.054688 C 69.867188 30.84375 68.460938 32.25 66.675781 32.25 Z M 66.675781 32.25 " fill-opacity="1" fill-rule="nonzero"/><path fill="#261129" d="M 124.140625 32.25 C 122.398438 32.25 120.949219 30.800781 120.949219 29.054688 C 120.949219 26.925781 119.203125 25.136719 117.074219 25.136719 C 115.332031 25.136719 113.882812 23.6875 113.882812 21.941406 C 113.882812 20.195312 115.332031 18.746094 117.074219 18.746094 C 122.738281 18.746094 127.335938 23.347656 127.335938 29.054688 C 127.335938 30.84375 125.929688 32.25 124.140625 32.25 Z M 124.140625 32.25 " fill-opacity="1" fill-rule="nonzero"/><path fill="#261129" d="M 141.765625 41.792969 C 142.363281 40.8125 142.871094 39.707031 143.253906 38.597656 L 136.871094 38.597656 C 133.890625 38.597656 131.207031 40.089844 129.632812 42.644531 L 127.503906 46.054688 C 127.121094 46.691406 126.441406 47.078125 125.71875 47.078125 L 121.546875 47.078125 C 119.800781 47.078125 118.351562 48.523438 118.351562 50.269531 C 118.351562 52.019531 119.800781 53.464844 121.546875 53.464844 L 125.71875 53.464844 C 128.695312 53.464844 131.378906 51.976562 132.953125 49.417969 L 135.082031 46.011719 C 135.464844 45.371094 136.148438 44.988281 136.871094 44.988281 L 143.339844 44.988281 C 142.957031 43.882812 142.445312 42.773438 141.765625 41.792969 Z M 141.765625 41.792969 " fill-opacity="1" fill-rule="nonzero"/><path fill="#261129" d="M 72.464844 50.269531 C 72.464844 48.523438 71.015625 47.078125 69.269531 47.078125 L 65.097656 47.078125 C 64.375 47.078125 63.695312 46.691406 63.3125 46.054688 L 61.183594 42.644531 C 59.609375 40.132812 56.925781 38.597656 53.945312 38.597656 L 47.5625 38.597656 C 47.945312 39.707031 48.453125 40.8125 49.050781 41.792969 C 48.414062 42.773438 47.859375 43.839844 47.476562 44.988281 L 53.945312 44.988281 C 54.671875 44.988281 55.351562 45.371094 55.734375 46.011719 L 57.863281 49.417969 C 59.4375 51.933594 62.121094 53.464844 65.097656 53.464844 L 69.269531 53.464844 C 71.058594 53.464844 72.464844 52.019531 72.464844 50.269531 Z M 72.464844 50.269531 " fill-opacity="1" fill-rule="nonzero"/><path fill="#261129" d="M 107.496094 54.0625 C 107.496094 52.316406 106.050781 50.867188 104.304688 50.867188 L 98.644531 50.867188 L 98.644531 34.421875 L 100.347656 34.421875 C 101.75 34.421875 103.113281 34.976562 104.09375 36 L 105.796875 37.703125 C 106.433594 38.34375 107.242188 38.640625 108.050781 38.640625 C 108.859375 38.640625 109.667969 38.34375 110.308594 37.703125 C 111.542969 36.46875 111.542969 34.421875 110.308594 33.1875 L 108.605469 31.484375 C 106.390625 29.269531 103.453125 28.035156 100.304688 28.035156 L 98.601562 28.035156 L 98.601562 20.664062 L 104.261719 20.664062 C 106.007812 20.664062 107.457031 19.214844 107.457031 17.46875 C 107.457031 15.722656 106.007812 14.273438 104.261719 14.273438 L 98.601562 14.273438 L 98.601562 4.644531 C 97.496094 5.070312 96.386719 5.582031 95.410156 6.222656 C 94.429688 5.582031 93.324219 5.027344 92.214844 4.644531 L 92.214844 14.273438 L 86.554688 14.273438 C 84.808594 14.273438 83.363281 15.722656 83.363281 17.46875 C 83.363281 19.214844 84.808594 20.664062 86.554688 20.664062 L 92.214844 20.664062 L 92.214844 28.035156 L 90.511719 28.035156 C 87.40625 28.035156 84.425781 29.269531 82.210938 31.484375 L 80.507812 33.1875 C 79.273438 34.421875 79.273438 36.46875 80.507812 37.703125 C 81.148438 38.34375 81.957031 38.640625 82.765625 38.640625 C 83.574219 38.640625 84.382812 38.34375 85.023438 37.703125 L 86.722656 36 C 87.746094 34.976562 89.066406 34.421875 90.46875 34.421875 L 92.171875 34.421875 L 92.171875 50.867188 L 86.554688 50.867188 C 84.808594 50.867188 83.363281 52.316406 83.363281 54.0625 C 83.363281 55.808594 84.808594 57.257812 86.554688 57.257812 L 92.214844 57.257812 L 92.214844 70.292969 C 93.363281 69.699219 94.472656 68.929688 95.410156 67.992188 C 96.34375 68.886719 97.453125 69.65625 98.601562 70.292969 L 98.601562 57.257812 L 104.261719 57.257812 C 106.050781 57.257812 107.496094 55.851562 107.496094 54.0625 Z M 107.496094 54.0625 " fill-opacity="1" fill-rule="nonzero"/><path fill="#fecc7c" d="M 104.261719 90.144531 L 116.777344 90.144531 C 121.503906 90.144531 125.972656 91.894531 129.464844 95.046875 L 132.699219 112.808594 C 134.0625 120.222656 139.636719 126.058594 146.960938 127.761719 L 160.792969 130.957031 C 161.050781 131 161.261719 131.042969 161.519531 131.042969 C 162.964844 131.042969 164.285156 130.0625 164.625 128.574219 C 165.007812 126.867188 163.945312 125.121094 162.242188 124.738281 L 148.40625 121.542969 C 143.554688 120.4375 139.894531 116.558594 139 111.660156 L 137.339844 102.628906 C 141.808594 106.164062 147.257812 108.082031 153.046875 108.082031 L 162.496094 108.082031 C 164.242188 108.082031 165.691406 106.632812 165.691406 104.886719 C 165.691406 103.140625 164.242188 101.691406 162.496094 101.691406 L 153.046875 101.691406 C 147.980469 101.691406 143.253906 99.730469 139.679688 96.152344 L 134.65625 91.167969 C 129.890625 86.398438 123.503906 83.757812 116.777344 83.757812 L 104.304688 83.757812 C 102.558594 83.757812 101.113281 85.203125 101.113281 86.953125 C 101.113281 88.699219 102.515625 90.144531 104.261719 90.144531 Z M 104.261719 90.144531 " fill-opacity="1" fill-rule="nonzero"/><path fill="#fecc7c" d="M 104.261719 108.082031 L 112.265625 108.082031 C 113.585938 108.082031 114.863281 108.59375 115.796875 109.53125 L 119.121094 112.851562 C 119.757812 113.492188 120.566406 113.789062 121.375 113.789062 C 122.183594 113.789062 122.992188 113.492188 123.632812 112.851562 C 124.867188 111.617188 124.867188 109.574219 123.632812 108.335938 L 120.3125 105.015625 C 118.140625 102.839844 115.289062 101.691406 112.265625 101.691406 L 104.261719 101.691406 C 102.515625 101.691406 101.070312 103.140625 101.070312 104.886719 C 101.070312 106.632812 102.515625 108.082031 104.261719 108.082031 Z M 104.261719 108.082031 " fill-opacity="1" fill-rule="nonzero"/><path fill="#fecc7c" d="M 104.261719 195.160156 L 112.265625 195.160156 C 113.585938 195.160156 114.863281 195.671875 115.796875 196.648438 L 119.121094 199.972656 C 119.757812 200.613281 120.566406 200.910156 121.375 200.910156 C 122.183594 200.910156 122.992188 200.613281 123.632812 199.972656 C 124.867188 198.738281 124.867188 196.691406 123.632812 195.457031 L 120.3125 192.132812 C 118.140625 189.960938 115.289062 188.8125 112.265625 188.8125 L 104.261719 188.8125 C 102.515625 188.8125 101.070312 190.261719 101.070312 192.007812 C 101.070312 193.753906 102.515625 195.160156 104.261719 195.160156 Z M 104.261719 195.160156 " fill-opacity="1" fill-rule="nonzero"/><path fill="#fecc7c" d="M 104.261719 128.914062 L 114.734375 128.914062 C 116.992188 128.914062 119.121094 129.808594 120.738281 131.382812 L 126.3125 136.964844 C 129.121094 139.777344 132.828125 141.3125 136.828125 141.3125 L 145.980469 141.3125 C 147.726562 141.3125 149.171875 139.863281 149.171875 138.117188 C 149.171875 136.367188 147.726562 134.921875 145.980469 134.921875 L 136.785156 134.921875 C 134.527344 134.921875 132.402344 134.027344 130.78125 132.449219 L 125.207031 126.867188 C 122.398438 124.058594 118.695312 122.523438 114.691406 122.523438 L 104.21875 122.523438 C 102.476562 122.523438 101.027344 123.972656 101.027344 125.71875 C 101.027344 127.464844 102.515625 128.914062 104.261719 128.914062 Z M 104.261719 128.914062 " fill-opacity="1" fill-rule="nonzero"/><path fill="#fecc7c" d="M 104.261719 154.730469 L 114.734375 154.730469 C 116.992188 154.730469 119.121094 155.625 120.738281 157.199219 L 126.3125 162.78125 C 129.121094 165.59375 132.828125 167.128906 136.828125 167.128906 L 145.980469 167.128906 C 147.726562 167.128906 149.171875 165.679688 149.171875 163.933594 C 149.171875 162.183594 147.726562 160.738281 145.980469 160.738281 L 136.785156 160.738281 C 134.527344 160.738281 132.402344 159.84375 130.78125 158.265625 L 127.25 154.730469 L 133.378906 154.730469 C 135.125 154.730469 136.574219 153.28125 136.574219 151.535156 C 136.574219 149.789062 135.125 148.339844 133.378906 148.339844 L 104.261719 148.339844 C 102.515625 148.339844 101.070312 149.789062 101.070312 151.535156 C 101.070312 153.28125 102.515625 154.730469 104.261719 154.730469 Z M 104.261719 154.730469 " fill-opacity="1" fill-rule="nonzero"/><g clip-path="url(#6212362cde)"><path fill="#fecc7c" d="M 132.65625 215.351562 L 126.355469 215.351562 C 125.25 215.351562 124.226562 214.882812 123.546875 214.03125 L 119.671875 209.261719 C 117.757812 206.917969 114.949219 205.554688 111.882812 205.554688 L 104.261719 205.554688 C 102.515625 205.554688 101.070312 207.003906 101.070312 208.75 C 101.070312 210.496094 102.515625 211.945312 104.261719 211.945312 L 111.882812 211.945312 C 112.988281 211.945312 114.011719 212.414062 114.691406 213.265625 L 118.566406 218.035156 C 120.480469 220.378906 123.289062 221.742188 126.355469 221.742188 L 132.65625 221.742188 C 134.402344 221.742188 135.847656 220.292969 135.847656 218.546875 C 135.847656 216.800781 134.402344 215.351562 132.65625 215.351562 Z M 132.65625 215.351562 " fill-opacity="1" fill-rule="nonzero"/></g><g clip-path="url(#4606df6bbd)"><path fill="#fecc7c" d="M 166.964844 199.375 L 157.175781 199.375 C 155.132812 199.375 153.175781 198.566406 151.726562 197.117188 L 148.492188 193.882812 L 154.75 193.882812 C 156.496094 193.882812 157.941406 192.433594 157.941406 190.6875 C 157.941406 188.9375 156.496094 187.492188 154.75 187.492188 L 145.597656 187.492188 C 143.339844 187.492188 141.210938 186.597656 139.59375 185.019531 L 134.019531 179.4375 C 131.207031 176.628906 127.503906 175.09375 123.503906 175.09375 L 104.175781 175.09375 C 102.433594 175.09375 100.984375 176.542969 100.984375 178.289062 C 100.984375 180.035156 102.433594 181.484375 104.175781 181.484375 L 123.589844 181.484375 C 125.84375 181.484375 127.972656 182.378906 129.589844 183.953125 L 147.214844 201.59375 C 149.855469 204.234375 153.429688 205.722656 157.175781 205.722656 L 166.964844 205.722656 C 168.710938 205.722656 170.160156 204.277344 170.160156 202.527344 C 170.160156 200.78125 168.753906 199.375 166.964844 199.375 Z M 166.964844 199.375 " fill-opacity="1" fill-rule="nonzero"/></g><path fill="#fecc7c" d="M 104.261719 168.105469 L 112.09375 168.105469 C 113.839844 168.105469 115.289062 166.660156 115.289062 164.910156 C 115.289062 163.164062 113.839844 161.71875 112.09375 161.71875 L 104.304688 161.71875 C 102.558594 161.71875 101.113281 163.164062 101.113281 164.910156 C 101.113281 166.660156 102.515625 168.105469 104.261719 168.105469 Z M 104.261719 168.105469 " fill-opacity="1" fill-rule="nonzero"/><path fill="#fecc7c" d="M 90.128906 90.144531 L 77.613281 90.144531 C 72.890625 90.144531 68.417969 91.894531 64.929688 95.046875 L 61.695312 112.808594 C 60.332031 120.222656 54.753906 126.058594 47.433594 127.761719 L 33.597656 130.957031 C 33.34375 131 33.128906 131.042969 32.875 131.042969 C 31.425781 131.042969 30.109375 130.0625 29.765625 128.574219 C 29.382812 126.867188 30.449219 125.121094 32.152344 124.738281 L 45.984375 121.542969 C 50.839844 120.4375 54.5 116.558594 55.394531 111.660156 L 57.054688 102.628906 C 52.585938 106.164062 47.136719 108.082031 41.347656 108.082031 L 31.894531 108.082031 C 30.148438 108.082031 28.703125 106.632812 28.703125 104.886719 C 28.703125 103.140625 30.148438 101.691406 31.894531 101.691406 L 41.347656 101.691406 C 46.410156 101.691406 51.136719 99.730469 54.710938 96.152344 L 59.691406 91.167969 C 64.460938 86.398438 70.847656 83.757812 77.570312 83.757812 L 90.042969 83.757812 C 91.789062 83.757812 93.238281 85.203125 93.238281 86.953125 C 93.238281 88.699219 91.875 90.144531 90.128906 90.144531 Z M 90.128906 90.144531 " fill-opacity="1" fill-rule="nonzero"/><path fill="#fecc7c" d="M 90.128906 108.082031 L 82.125 108.082031 C 80.808594 108.082031 79.53125 108.59375 78.59375 109.53125 L 75.273438 112.851562 C 74.636719 113.492188 73.824219 113.789062 73.015625 113.789062 C 72.207031 113.789062 71.398438 113.492188 70.761719 112.851562 C 69.527344 111.617188 69.527344 109.574219 70.761719 108.335938 L 74.082031 105.015625 C 76.253906 102.839844 79.105469 101.691406 82.125 101.691406 L 90.128906 101.691406 C 91.875 101.691406 93.324219 103.140625 93.324219 104.886719 C 93.324219 106.632812 91.875 108.082031 90.128906 108.082031 Z M 90.128906 108.082031 " fill-opacity="1" fill-rule="nonzero"/><path fill="#fecc7c" d="M 90.128906 195.160156 L 82.125 195.160156 C 80.808594 195.160156 79.53125 195.671875 78.59375 196.648438 L 75.273438 199.972656 C 74.636719 200.613281 73.824219 200.910156 73.015625 200.910156 C 72.207031 200.910156 71.398438 200.613281 70.761719 199.972656 C 69.527344 198.738281 69.527344 196.691406 70.761719 195.457031 L 74.082031 192.132812 C 76.253906 189.960938 79.105469 188.8125 82.125 188.8125 L 90.128906 188.8125 C 91.875 188.8125 93.324219 190.261719 93.324219 192.007812 C 93.324219 193.753906 91.875 195.160156 90.128906 195.160156 Z M 90.128906 195.160156 " fill-opacity="1" fill-rule="nonzero"/><path fill="#fecc7c" d="M 90.128906 128.914062 L 79.65625 128.914062 C 77.402344 128.914062 75.273438 129.808594 73.65625 131.382812 L 68.078125 136.964844 C 65.269531 139.777344 61.566406 141.3125 57.566406 141.3125 L 48.414062 141.3125 C 46.667969 141.3125 45.21875 139.863281 45.21875 138.117188 C 45.21875 136.367188 46.667969 134.921875 48.414062 134.921875 L 57.605469 134.921875 C 59.863281 134.921875 61.992188 134.027344 63.609375 132.449219 L 69.1875 126.867188 C 71.996094 124.058594 75.699219 122.523438 79.699219 122.523438 L 90.171875 122.523438 C 91.917969 122.523438 93.363281 123.972656 93.363281 125.71875 C 93.363281 127.464844 91.875 128.914062 90.128906 128.914062 Z M 90.128906 128.914062 " fill-opacity="1" fill-rule="nonzero"/><path fill="#fecc7c" d="M 90.128906 154.730469 L 79.65625 154.730469 C 77.402344 154.730469 75.273438 155.625 73.65625 157.199219 L 68.078125 162.78125 C 65.269531 165.59375 61.566406 167.128906 57.566406 167.128906 L 48.414062 167.128906 C 46.667969 167.128906 45.21875 165.679688 45.21875 163.933594 C 45.21875 162.183594 46.667969 160.738281 48.414062 160.738281 L 57.605469 160.738281 C 59.863281 160.738281 61.992188 159.84375 63.609375 158.265625 L 67.144531 154.730469 L 61.011719 154.730469 C 59.265625 154.730469 57.820312 153.28125 57.820312 151.535156 C 57.820312 149.789062 59.265625 148.339844 61.011719 148.339844 L 90.128906 148.339844 C 91.875 148.339844 93.324219 149.789062 93.324219 151.535156 C 93.324219 153.28125 91.875 154.730469 90.128906 154.730469 Z M 90.128906 154.730469 " fill-opacity="1" fill-rule="nonzero"/><g clip-path="url(#03cab01241)"><path fill="#fecc7c" d="M 61.738281 215.351562 L 68.035156 215.351562 C 69.144531 215.351562 70.164062 214.882812 70.847656 214.03125 L 74.71875 209.261719 C 76.636719 206.917969 79.445312 205.554688 82.511719 205.554688 L 90.128906 205.554688 C 91.875 205.554688 93.324219 207.003906 93.324219 208.75 C 93.324219 210.496094 91.875 211.945312 90.128906 211.945312 L 82.511719 211.945312 C 81.402344 211.945312 80.382812 212.414062 79.699219 213.265625 L 75.828125 218.035156 C 73.910156 220.378906 71.101562 221.742188 68.035156 221.742188 L 61.738281 221.742188 C 59.992188 221.742188 58.542969 220.292969 58.542969 218.546875 C 58.542969 216.800781 59.992188 215.351562 61.738281 215.351562 Z M 61.738281 215.351562 " fill-opacity="1" fill-rule="nonzero"/></g><path fill="#fecc7c" d="M 27.425781 199.375 L 37.21875 199.375 C 39.261719 199.375 41.21875 198.566406 42.664062 197.117188 L 45.902344 193.882812 L 39.644531 193.882812 C 37.898438 193.882812 36.449219 192.433594 36.449219 190.6875 C 36.449219 188.9375 37.898438 187.492188 39.644531 187.492188 L 48.796875 187.492188 C 51.050781 187.492188 53.179688 186.597656 54.796875 185.019531 L 60.375 179.4375 C 63.183594 176.628906 66.886719 175.09375 70.890625 175.09375 L 90.214844 175.09375 C 91.960938 175.09375 93.40625 176.542969 93.40625 178.289062 C 93.40625 180.035156 91.960938 181.484375 90.214844 181.484375 L 70.804688 181.484375 C 68.546875 181.484375 66.417969 182.378906 64.800781 183.953125 L 47.179688 201.59375 C 44.539062 204.234375 40.960938 205.722656 37.21875 205.722656 L 27.425781 205.722656 C 25.679688 205.722656 24.234375 204.277344 24.234375 202.527344 C 24.234375 200.78125 25.636719 199.375 27.425781 199.375 Z M 27.425781 199.375 " fill-opacity="1" fill-rule="nonzero"/><path fill="#fecc7c" d="M 90.128906 168.105469 L 82.296875 168.105469 C 80.550781 168.105469 79.105469 166.660156 79.105469 164.910156 C 79.105469 163.164062 80.550781 161.71875 82.296875 161.71875 L 90.085938 161.71875 C 91.832031 161.71875 93.28125 163.164062 93.28125 164.910156 C 93.28125 166.660156 91.875 168.105469 90.128906 168.105469 Z M 90.128906 168.105469 " fill-opacity="1" fill-rule="nonzero"/><g clip-path="url(#ff62ac896f)"><path fill="#fdd798" d="M 100.855469 221.742188 L 93.492188 221.742188 C 91.621094 221.742188 90.085938 220.207031 90.085938 218.335938 L 90.085938 64.796875 L 104.261719 64.796875 L 104.261719 218.335938 C 104.261719 220.207031 102.773438 221.742188 100.855469 221.742188 Z M 100.855469 221.742188 " fill-opacity="1" fill-rule="nonzero"/></g><g clip-path="url(#47f93c7458)"><path fill="#fee0b1" d="M 141.425781 41.664062 L 145.042969 38.640625 C 145.597656 36.980469 145.9375 35.191406 145.9375 33.316406 C 145.9375 26.710938 142.0625 21.046875 136.445312 18.449219 C 134.359375 10.949219 127.503906 5.453125 119.375 5.453125 C 117.757812 5.453125 116.140625 5.667969 114.648438 6.09375 C 112.136719 4.515625 109.199219 3.621094 106.050781 3.621094 C 104.050781 3.621094 102.132812 3.964844 100.390625 4.644531 L 97.195312 8.308594 L 94.003906 4.644531 C 92.257812 4.007812 90.34375 3.621094 88.34375 3.621094 C 85.191406 3.621094 82.253906 4.515625 79.785156 6.050781 C 78.296875 5.625 76.679688 5.410156 75.058594 5.410156 C 66.929688 5.410156 60.035156 10.90625 57.992188 18.40625 C 52.371094 21.003906 48.496094 26.710938 48.496094 33.273438 C 48.496094 35.148438 48.796875 36.9375 49.390625 38.597656 L 53.5625 41.539062 L 49.304688 44.988281 C 48.796875 46.4375 48.496094 48.011719 48.496094 49.675781 C 48.496094 57.515625 54.839844 63.859375 62.671875 63.859375 C 62.929688 63.859375 63.183594 63.859375 63.4375 63.859375 C 65.015625 67.78125 68.84375 70.59375 73.316406 70.59375 C 75.359375 70.59375 77.273438 69.996094 78.890625 69.015625 C 81.277344 70.847656 84.253906 71.914062 87.492188 71.914062 C 89.875 71.914062 92.089844 71.316406 94.046875 70.292969 L 97.238281 66.160156 L 100.429688 70.292969 C 102.390625 71.316406 104.601562 71.914062 106.988281 71.914062 C 110.222656 71.914062 113.203125 70.804688 115.585938 69.015625 C 117.203125 70.039062 119.121094 70.59375 121.164062 70.59375 C 125.632812 70.59375 129.464844 67.824219 131.039062 63.859375 C 131.292969 63.859375 131.550781 63.859375 131.804688 63.859375 C 139.636719 63.859375 145.980469 57.515625 145.980469 49.675781 C 145.980469 48.011719 145.683594 46.480469 145.171875 44.988281 Z M 141.425781 41.664062 " fill-opacity="1" fill-rule="nonzero"/></g><path fill="#fdd798" d="M 141.425781 41.664062 L 145.042969 38.640625 C 145.597656 36.980469 145.9375 35.191406 145.9375 33.316406 C 145.9375 26.710938 142.0625 21.046875 136.445312 18.449219 C 134.488281 11.292969 128.144531 5.964844 120.480469 5.496094 C 126.144531 12.824219 129.546875 22.113281 129.546875 32.164062 C 129.546875 49.589844 119.375 64.628906 104.6875 71.699219 C 105.410156 71.828125 106.179688 71.871094 106.945312 71.871094 C 110.179688 71.871094 113.160156 70.761719 115.542969 68.972656 C 117.160156 69.996094 119.078125 70.550781 121.121094 70.550781 C 125.589844 70.550781 129.421875 67.78125 130.996094 63.820312 C 131.25 63.820312 131.507812 63.820312 131.761719 63.820312 C 139.59375 63.820312 145.9375 57.472656 145.9375 49.632812 C 145.9375 47.972656 145.640625 46.4375 145.128906 44.945312 Z M 141.425781 41.664062 " fill-opacity="1" fill-rule="nonzero"/><path fill="#fecc7c" d="M 68.460938 32.25 C 66.71875 32.25 65.269531 30.800781 65.269531 29.054688 C 65.269531 23.390625 69.867188 18.746094 75.527344 18.746094 C 77.273438 18.746094 78.722656 20.195312 78.722656 21.941406 C 78.722656 23.6875 77.273438 25.136719 75.527344 25.136719 C 73.398438 25.136719 71.65625 26.882812 71.65625 29.054688 C 71.65625 30.84375 70.207031 32.25 68.460938 32.25 Z M 68.460938 32.25 " fill-opacity="1" fill-rule="nonzero"/><path fill="#fecc7c" d="M 125.929688 32.25 C 124.183594 32.25 122.738281 30.800781 122.738281 29.054688 C 122.738281 26.925781 120.992188 25.136719 118.863281 25.136719 C 117.117188 25.136719 115.671875 23.6875 115.671875 21.941406 C 115.671875 20.195312 117.117188 18.746094 118.863281 18.746094 C 124.527344 18.746094 129.121094 23.347656 129.121094 29.054688 C 129.121094 30.84375 127.675781 32.25 125.929688 32.25 Z M 125.929688 32.25 " fill-opacity="1" fill-rule="nonzero"/><path fill="#fecc7c" d="M 143.554688 41.792969 C 144.148438 40.8125 144.660156 39.707031 145.042969 38.597656 L 138.660156 38.597656 C 135.679688 38.597656 132.996094 40.089844 131.421875 42.644531 L 129.292969 46.054688 C 128.910156 46.691406 128.230469 47.078125 127.503906 47.078125 L 123.332031 47.078125 C 121.589844 47.078125 120.140625 48.523438 120.140625 50.269531 C 120.140625 52.019531 121.589844 53.464844 123.332031 53.464844 L 127.503906 53.464844 C 130.484375 53.464844 133.167969 51.976562 134.742188 49.417969 L 136.871094 46.011719 C 137.253906 45.371094 137.933594 44.988281 138.660156 44.988281 L 145.128906 44.988281 C 144.746094 43.882812 144.191406 42.773438 143.554688 41.792969 Z M 143.554688 41.792969 " fill-opacity="1" fill-rule="nonzero"/><path fill="#fecc7c" d="M 74.25 50.269531 C 74.25 48.523438 72.804688 47.078125 71.058594 47.078125 L 66.886719 47.078125 C 66.164062 47.078125 65.484375 46.691406 65.097656 46.054688 L 62.972656 42.644531 C 61.394531 40.132812 58.714844 38.597656 55.734375 38.597656 L 49.347656 38.597656 C 49.730469 39.707031 50.242188 40.8125 50.839844 41.792969 C 50.199219 42.773438 49.648438 43.839844 49.265625 44.988281 L 55.734375 44.988281 C 56.457031 44.988281 57.140625 45.371094 57.523438 46.011719 L 59.652344 49.417969 C 61.226562 51.933594 63.90625 53.464844 66.886719 53.464844 L 71.058594 53.464844 C 72.804688 53.464844 74.25 52.019531 74.25 50.269531 Z M 74.25 50.269531 " fill-opacity="1" fill-rule="nonzero"/><path fill="#fecc7c" d="M 109.242188 54.0625 C 109.242188 52.316406 107.796875 50.867188 106.050781 50.867188 L 100.390625 50.867188 L 100.390625 34.421875 L 102.089844 34.421875 C 103.496094 34.421875 104.859375 34.976562 105.835938 36 L 107.539062 37.703125 C 108.179688 38.34375 108.988281 38.640625 109.796875 38.640625 C 110.605469 38.640625 111.414062 38.34375 112.054688 37.703125 C 113.289062 36.46875 113.289062 34.421875 112.054688 33.1875 L 110.351562 31.484375 C 108.136719 29.269531 105.199219 28.035156 102.050781 28.035156 L 100.347656 28.035156 L 100.347656 20.664062 L 106.007812 20.664062 C 107.753906 20.664062 109.199219 19.214844 109.199219 17.46875 C 109.199219 15.722656 107.839844 14.273438 106.050781 14.273438 L 100.390625 14.273438 L 100.390625 4.644531 C 99.28125 5.070312 98.175781 5.582031 97.195312 6.222656 C 96.21875 5.582031 95.109375 5.027344 94.003906 4.644531 L 94.003906 14.273438 L 88.34375 14.273438 C 86.597656 14.273438 85.148438 15.722656 85.148438 17.46875 C 85.148438 19.214844 86.597656 20.664062 88.34375 20.664062 L 94.003906 20.664062 L 94.003906 28.035156 L 92.300781 28.035156 C 89.191406 28.035156 86.214844 29.269531 84 31.484375 L 82.296875 33.1875 C 81.0625 34.421875 81.0625 36.46875 82.296875 37.703125 C 82.9375 38.34375 83.746094 38.640625 84.554688 38.640625 C 85.363281 38.640625 86.171875 38.34375 86.808594 37.703125 L 88.511719 36 C 89.535156 34.976562 90.851562 34.421875 92.257812 34.421875 L 93.960938 34.421875 L 93.960938 50.867188 L 88.300781 50.867188 C 86.554688 50.867188 85.105469 52.316406 85.105469 54.0625 C 85.105469 55.808594 86.554688 57.257812 88.300781 57.257812 L 93.960938 57.257812 L 93.960938 70.292969 C 95.109375 69.699219 96.21875 68.929688 97.152344 67.992188 C 98.089844 68.886719 99.195312 69.65625 100.347656 70.292969 L 100.347656 57.257812 L 106.007812 57.257812 C 107.839844 57.257812 109.242188 55.851562 109.242188 54.0625 Z M 109.242188 54.0625 " fill-opacity="1" fill-rule="nonzero"/><g clip-path="url(#73cbfb9b8c)"><g clip-path="url(#7e80af845a)"><g clip-path="url(#993f2d1d24)"><g clip-path="url(#42738740cf)"><path fill="#ffffff" d="M 199.105469 119.878906 C 199.183594 119.882812 199.246094 119.847656 199.289062 119.78125 C 199.5625 119.808594 199.667969 120.242188 200.019531 120.082031 C 200.859375 120.234375 201.238281 119.695312 201.535156 119.050781 C 202.363281 117.242188 202.882812 115.339844 203.285156 113.40625 C 204.714844 106.472656 204.632812 99.566406 203.324219 92.605469 C 201.039062 80.453125 194.976562 70.480469 186.144531 62.070312 C 182.050781 58.171875 177.351562 55.0625 172.503906 52.171875 C 169.65625 50.472656 166.714844 48.949219 163.808594 47.355469 C 163.679688 47.34375 163.550781 47.335938 163.421875 47.324219 C 163.332031 47.207031 163.199219 47.101562 163.175781 46.972656 C 163.175781 46.972656 163.175781 46.972656 163.175781 46.96875 C 163.15625 46.867188 163.304688 46.84375 163.40625 46.898438 C 164.695312 46.707031 165.984375 46.789062 167.265625 46.945312 C 168.140625 47.050781 169 47.085938 169.859375 46.863281 C 171.746094 47.101562 173.015625 46.273438 173.453125 44.59375 C 170.316406 42.46875 166.78125 42.300781 163.167969 42.421875 C 161.824219 42.464844 160.484375 42.417969 159.140625 42.394531 C 155.925781 42.328125 156.390625 42.519531 155.007812 44.746094 C 154.699219 45.242188 154.511719 45.804688 154.382812 46.378906 C 154.332031 46.589844 154.308594 46.789062 154.441406 46.980469 C 154.121094 47.566406 154.433594 48.027344 154.761719 48.464844 C 155.734375 49.765625 156.722656 51.050781 157.707031 52.339844 C 157.746094 52.726562 157.992188 52.984375 158.253906 53.230469 C 158.28125 53.617188 158.535156 53.875 158.773438 54.140625 C 158.746094 54.417969 158.953125 54.597656 159.066406 54.816406 C 160.558594 57.789062 161.699219 60.882812 162.304688 64.167969 C 162.351562 64.414062 162.414062 64.65625 162.472656 64.902344 C 162.535156 65.191406 162.605469 65.523438 162.945312 65.554688 C 163.203125 65.582031 163.46875 65.339844 163.523438 65.125 C 163.753906 64.179688 164.523438 63.527344 164.824219 62.632812 C 164.960938 62.234375 164.921875 61.816406 164.875 61.390625 C 164.53125 58.109375 163.613281 54.980469 162.375 51.9375 C 162.261719 51.667969 162.105469 51.40625 162.054688 51.121094 C 161.996094 50.789062 162.261719 50.714844 162.535156 50.707031 C 162.695312 51.003906 162.9375 51.121094 163.265625 51.082031 C 163.460938 51.324219 163.667969 51.542969 164.023438 51.488281 C 164.039062 51.570312 164.085938 51.597656 164.164062 51.574219 C 164.34375 51.808594 164.550781 52 164.878906 51.964844 C 165.039062 52.097656 165.179688 52.253906 165.355469 52.359375 C 167.296875 53.503906 169.257812 54.617188 171.183594 55.785156 C 172.933594 56.84375 174.648438 57.957031 176.375 59.050781 C 176.796875 59.394531 177.203125 59.75 177.636719 60.074219 C 181.824219 63.257812 185.5625 66.898438 188.742188 71.089844 C 189.878906 72.585938 190.96875 74.117188 192.078125 75.632812 C 192.113281 76.039062 192.390625 76.292969 192.660156 76.554688 C 192.6875 76.945312 192.945312 77.195312 193.199219 77.445312 C 193.199219 77.820312 193.464844 78.042969 193.679688 78.292969 C 193.65625 78.542969 193.78125 78.707031 193.96875 78.84375 C 193.964844 78.933594 194.003906 78.996094 194.089844 79.03125 C 194.070312 79.304688 194.269531 79.484375 194.371094 79.707031 C 194.878906 80.796875 195.582031 81.789062 195.953125 82.941406 C 196.09375 82.972656 196.328125 83.226562 196.234375 82.78125 C 196.175781 82.480469 196.234375 82.421875 196.335938 82.445312 C 196.421875 82.464844 196.542969 82.546875 196.640625 82.601562 C 198.136719 86.09375 199.191406 89.726562 200.007812 93.429688 C 200.050781 93.78125 200.097656 94.132812 200.140625 94.484375 C 200.402344 96.582031 200.664062 98.679688 200.929688 100.773438 C 200.886719 100.847656 200.871094 100.921875 200.886719 100.992188 C 200.894531 101.042969 200.914062 101.089844 200.949219 101.136719 C 200.875 101.261719 200.882812 101.378906 200.964844 101.492188 C 200.890625 101.613281 200.898438 101.734375 200.984375 101.847656 C 200.902344 101.96875 200.914062 102.089844 201 102.207031 C 200.917969 102.328125 200.921875 102.449219 201.011719 102.5625 C 200.925781 102.683594 200.929688 102.800781 201.023438 102.914062 L 201.023438 102.921875 C 200.9375 103.035156 200.9375 103.15625 201.027344 103.269531 L 201.027344 103.277344 C 201.023438 103.390625 201.023438 103.507812 201.03125 103.625 L 201.03125 103.636719 C 200.945312 103.753906 200.941406 103.867188 201.03125 103.984375 L 201.03125 103.996094 C 200.945312 104.113281 200.945312 104.226562 201.03125 104.34375 L 201.03125 104.355469 C 201.03125 104.355469 201.03125 104.359375 201.03125 104.359375 C 201.03125 104.359375 201.03125 104.355469 201.03125 104.355469 C 200.941406 104.472656 200.941406 104.589844 201.03125 104.703125 L 201.03125 104.710938 C 200.941406 104.828125 200.941406 104.945312 201.03125 105.0625 L 201.03125 105.066406 C 200.941406 105.183594 200.9375 105.304688 201.023438 105.421875 C 200.941406 106.515625 200.859375 107.609375 200.773438 108.703125 C 200.910156 109.285156 200.757812 109.855469 200.6875 110.429688 C 200.625 110.453125 200.5625 110.460938 200.503906 110.457031 C 200.410156 110.449219 200.328125 110.417969 200.246094 110.355469 C 200.144531 110.78125 200.015625 111.199219 200.117188 111.644531 C 200.160156 111.777344 200.183594 111.910156 200.148438 112.050781 C 200.136719 111.917969 200.128906 111.78125 200.117188 111.644531 C 200.054688 111.773438 200.015625 111.902344 200.125 112.019531 C 199.96875 112.175781 199.9375 112.363281 199.988281 112.570312 C 199.882812 112.671875 199.855469 112.78125 199.933594 112.90625 C 199.859375 113.03125 199.820312 113.15625 199.894531 113.296875 C 199.847656 113.351562 199.824219 113.414062 199.84375 113.488281 C 199.671875 113.886719 199.589844 114.300781 199.609375 114.734375 C 199.503906 115.019531 199.390625 115.304688 199.445312 115.621094 C 199.308594 115.78125 199.3125 115.976562 199.304688 116.164062 C 198.886719 117.296875 198.679688 118.5 198.015625 119.601562 C 198.464844 119.640625 198.695312 120.074219 199.105469 119.878906 Z M 164.34375 51.394531 C 164.34375 51.398438 164.34375 51.398438 164.347656 51.402344 C 164.351562 51.398438 164.347656 51.398438 164.347656 51.398438 C 164.351562 51.398438 164.347656 51.40625 164.347656 51.40625 C 164.347656 51.40625 164.347656 51.402344 164.347656 51.402344 C 164.34375 51.402344 164.339844 51.40625 164.339844 51.410156 C 164.339844 51.402344 164.34375 51.402344 164.34375 51.394531 Z M 201.726562 104.644531 C 201.734375 104.613281 201.738281 104.585938 201.742188 104.558594 C 201.746094 104.566406 201.746094 104.574219 201.746094 104.582031 C 201.746094 104.605469 201.746094 104.628906 201.746094 104.65625 C 201.742188 104.652344 201.738281 104.648438 201.726562 104.644531 Z M 200.941406 100.789062 C 200.945312 100.785156 200.945312 100.789062 200.949219 100.789062 C 200.957031 100.789062 200.96875 100.785156 200.976562 100.789062 L 201.011719 100.792969 L 200.945312 100.789062 C 200.945312 100.792969 200.945312 100.792969 200.941406 100.796875 C 200.945312 100.792969 200.945312 100.792969 200.941406 100.789062 Z M 201.835938 104.71875 C 201.808594 104.699219 201.777344 104.679688 201.75 104.660156 C 201.75 104.636719 201.75 104.609375 201.75 104.585938 C 201.757812 104.636719 201.785156 104.683594 201.835938 104.71875 Z M 201.757812 104.425781 C 201.757812 104.394531 201.757812 104.367188 201.757812 104.34375 C 201.761719 104.339844 201.761719 104.335938 201.761719 104.335938 C 201.757812 104.367188 201.757812 104.394531 201.757812 104.425781 Z M 200.546875 118.105469 C 200.550781 118.109375 200.546875 118.113281 200.550781 118.117188 C 200.550781 118.117188 200.550781 118.121094 200.550781 118.121094 C 200.546875 118.121094 200.546875 118.128906 200.542969 118.128906 C 200.542969 118.121094 200.546875 118.117188 200.546875 118.105469 Z M 200.730469 117.601562 C 200.734375 117.597656 200.742188 117.59375 200.742188 117.585938 C 200.734375 117.589844 200.734375 117.601562 200.730469 117.601562 Z M 200.253906 112.242188 C 200.273438 112.253906 200.300781 112.265625 200.328125 112.273438 C 200.316406 112.285156 200.304688 112.296875 200.292969 112.3125 C 200.28125 112.285156 200.265625 112.265625 200.253906 112.242188 Z M 199.984375 113.152344 C 199.984375 113.195312 199.96875 113.242188 199.933594 113.285156 C 199.933594 113.285156 199.933594 113.285156 199.933594 113.28125 C 199.960938 113.238281 199.980469 113.195312 199.984375 113.152344 Z M 199.984375 113.152344 " fill-opacity="1" fill-rule="nonzero"/></g></g></g></g><g clip-path="url(#e50136dc49)"><g clip-path="url(#2534829a3b)"><g clip-path="url(#e6221e9b2b)"><g clip-path="url(#6d449ef995)"><path fill="#ffffff" d="M 201.035156 103.644531 C 201.035156 103.527344 201.03125 103.410156 201.035156 103.296875 C 200.945312 103.414062 200.949219 103.53125 201.035156 103.644531 Z M 201.035156 103.644531 " fill-opacity="1" fill-rule="nonzero"/></g></g></g></g></svg>