<svg xmlns="http://www.w3.org/2000/svg" xmlns:xlink="http://www.w3.org/1999/xlink" width="200" zoomAndPan="magnify" viewBox="0 0 150 74.999997" height="100" preserveAspectRatio="xMidYMid meet" version="1.0"><defs><clipPath id="c9b52b022c"><path d="M 5.703125 15.324219 L 144.453125 15.324219 L 144.453125 59.574219 L 5.703125 59.574219 Z M 5.703125 15.324219 " clip-rule="nonzero"/></clipPath><clipPath id="a053f9b966"><path d="M 5.703125 15.324219 L 144.453125 15.324219 L 144.453125 56 L 5.703125 56 Z M 5.703125 15.324219 " clip-rule="nonzero"/></clipPath></defs><g clip-path="url(#c9b52b022c)"><path fill="#fcd24f" d="M 144.449219 35.265625 L 144.449219 39.414062 C 144.449219 50.53125 135.375 59.574219 124.21875 59.574219 L 25.9375 59.574219 C 14.753906 59.574219 5.710938 50.53125 5.710938 39.414062 L 5.710938 35.265625 C 5.847656 24.230469 14.839844 15.324219 25.9375 15.324219 L 124.21875 15.324219 C 135.320312 15.324219 144.363281 24.230469 144.449219 35.265625 Z M 144.449219 35.265625 L 144.449219 39.414062 C 144.449219 50.53125 135.375 59.574219 124.21875 59.574219 L 25.9375 59.574219 C 14.753906 59.574219 5.710938 50.53125 5.710938 39.414062 L 5.710938 35.265625 C 5.847656 24.230469 14.839844 15.324219 25.9375 15.324219 L 124.21875 15.324219 C 135.320312 15.324219 144.363281 24.230469 144.449219 35.265625 Z M 144.449219 35.265625 " fill-opacity="1" fill-rule="nonzero"/></g><g clip-path="url(#a053f9b966)"><path fill="#39250f" d="M 124.21875 18.117188 C 133.820312 18.117188 141.644531 25.917969 141.644531 35.488281 C 141.644531 45.054688 133.820312 52.855469 124.21875 52.855469 L 25.910156 52.855469 C 16.308594 52.828125 8.511719 45.054688 8.511719 35.488281 C 8.511719 25.917969 16.308594 18.117188 25.910156 18.117188 L 124.21875 18.117188 M 124.21875 15.324219 L 25.9375 15.324219 C 14.753906 15.324219 5.710938 24.339844 5.710938 35.488281 C 5.710938 46.632812 14.753906 55.648438 25.9375 55.648438 L 124.21875 55.648438 C 135.375 55.648438 144.449219 46.632812 144.449219 35.488281 C 144.449219 24.339844 135.402344 15.324219 124.21875 15.324219 Z M 50.550781 42.566406 C 50.023438 42.261719 49.605469 41.847656 49.328125 41.320312 C 49.050781 40.796875 48.886719 40.1875 48.886719 39.523438 L 48.886719 39.027344 L 50.9375 38.804688 L 50.9375 39.332031 C 50.9375 39.828125 51.078125 40.242188 51.328125 40.546875 C 51.578125 40.851562 51.910156 40.992188 52.355469 40.992188 C 52.769531 40.992188 53.101562 40.851562 53.351562 40.601562 C 53.601562 40.355469 53.742188 40.050781 53.742188 39.609375 C 53.742188 39.136719 53.601562 38.695312 53.324219 38.308594 C 53.074219 37.894531 52.546875 37.3125 51.769531 36.566406 C 50.714844 35.570312 49.996094 34.738281 49.605469 34.078125 C 49.21875 33.414062 49.023438 32.695312 49.023438 31.890625 C 49.023438 30.839844 49.300781 29.984375 49.910156 29.347656 C 50.496094 28.710938 51.300781 28.40625 52.324219 28.40625 C 53.351562 28.40625 54.128906 28.710938 54.738281 29.375 C 55.324219 30.011719 55.628906 30.867188 55.628906 31.917969 L 55.628906 32.304688 L 53.574219 32.527344 L 53.574219 32.113281 C 53.574219 31.585938 53.492188 31.144531 53.269531 30.867188 C 53.074219 30.589844 52.769531 30.425781 52.382812 30.425781 C 51.992188 30.425781 51.714844 30.5625 51.492188 30.757812 C 51.300781 30.980469 51.1875 31.3125 51.1875 31.78125 C 51.1875 32.222656 51.328125 32.664062 51.605469 33.054688 C 51.882812 33.441406 52.382812 34.046875 53.160156 34.824219 C 54.210938 35.875 54.933594 36.730469 55.324219 37.367188 C 55.710938 38.03125 55.90625 38.695312 55.90625 39.496094 C 55.90625 40.1875 55.738281 40.769531 55.460938 41.292969 C 55.183594 41.820312 54.769531 42.234375 54.242188 42.539062 C 53.714844 42.84375 53.101562 42.980469 52.4375 42.980469 C 51.6875 43.007812 51.050781 42.84375 50.550781 42.566406 Z M 59.957031 28.628906 L 66.835938 28.628906 L 66.835938 30.648438 L 64.480469 30.648438 L 64.480469 42.789062 L 62.316406 42.789062 L 62.316406 30.648438 L 59.957031 30.648438 Z M 74.941406 39.664062 L 72.636719 39.664062 L 72.164062 42.816406 L 70 42.816406 L 72.359375 28.628906 L 75.246094 28.628906 L 77.605469 42.816406 L 75.410156 42.816406 Z M 74.636719 37.617188 L 73.746094 31.699219 L 72.859375 37.617188 Z M 87.121094 42.816406 L 85.566406 36.953125 L 84.429688 36.953125 L 84.429688 42.816406 L 82.292969 42.816406 L 82.292969 28.628906 L 85.679688 28.628906 C 86.707031 28.628906 87.511719 28.933594 88.148438 29.566406 C 88.785156 30.203125 89.0625 31.007812 89.0625 32.03125 L 89.0625 33.578125 C 89.0625 34.242188 88.925781 34.796875 88.675781 35.292969 C 88.425781 35.789062 88.035156 36.207031 87.59375 36.480469 L 89.398438 42.816406 Z M 84.457031 34.933594 L 85.59375 34.933594 C 86.011719 34.933594 86.34375 34.796875 86.566406 34.601562 C 86.789062 34.378906 86.898438 34.046875 86.898438 33.632812 L 86.898438 31.972656 C 86.898438 31.558594 86.761719 31.226562 86.566406 31.007812 C 86.371094 30.785156 86.011719 30.675781 85.59375 30.675781 L 84.457031 30.675781 Z M 93.449219 28.628906 L 100.328125 28.628906 L 100.328125 30.648438 L 97.972656 30.648438 L 97.972656 42.789062 L 95.804688 42.789062 L 95.804688 30.648438 L 93.449219 30.648438 Z M 93.449219 28.628906 " fill-opacity="1" fill-rule="nonzero"/></g></svg>