<svg xmlns="http://www.w3.org/2000/svg" xmlns:xlink="http://www.w3.org/1999/xlink" width="300" zoomAndPan="magnify" viewBox="0 0 224.87999 112.499997" height="150" preserveAspectRatio="xMidYMid meet" version="1.0"><defs><g/><clipPath id="f3714ba29c"><path d="M 156.242188 23.050781 L 211.496094 23.050781 L 211.496094 78.308594 L 156.242188 78.308594 Z M 156.242188 23.050781 " clip-rule="nonzero"/></clipPath></defs><g clip-path="url(#f3714ba29c)"><path fill="#39250f" d="M 211.488281 50.675781 C 211.488281 51.578125 211.441406 52.480469 211.355469 53.382812 C 211.265625 54.28125 211.132812 55.175781 210.957031 56.0625 C 210.78125 56.953125 210.5625 57.828125 210.296875 58.695312 C 210.035156 59.558594 209.730469 60.410156 209.386719 61.246094 C 209.039062 62.082031 208.652344 62.898438 208.226562 63.695312 C 207.800781 64.496094 207.335938 65.269531 206.832031 66.023438 C 206.328125 66.773438 205.792969 67.5 205.21875 68.199219 C 204.644531 68.898438 204.035156 69.566406 203.398438 70.207031 C 202.757812 70.847656 202.085938 71.453125 201.386719 72.027344 C 200.6875 72.601562 199.964844 73.140625 199.210938 73.644531 C 198.460938 74.144531 197.683594 74.609375 196.886719 75.035156 C 196.089844 75.460938 195.269531 75.847656 194.4375 76.195312 C 193.601562 76.542969 192.75 76.847656 191.882812 77.109375 C 191.019531 77.371094 190.140625 77.589844 189.253906 77.765625 C 188.367188 77.945312 187.472656 78.078125 186.574219 78.164062 C 185.671875 78.253906 184.769531 78.296875 183.863281 78.296875 C 182.960938 78.296875 182.058594 78.253906 181.15625 78.164062 C 180.257812 78.078125 179.363281 77.945312 178.476562 77.765625 C 177.589844 77.589844 176.710938 77.371094 175.847656 77.109375 C 174.980469 76.847656 174.128906 76.542969 173.292969 76.195312 C 172.457031 75.847656 171.640625 75.460938 170.84375 75.035156 C 170.046875 74.609375 169.269531 74.144531 168.519531 73.644531 C 167.765625 73.140625 167.039062 72.601562 166.339844 72.027344 C 165.640625 71.453125 164.972656 70.847656 164.332031 70.207031 C 163.691406 69.566406 163.085938 68.898438 162.511719 68.199219 C 161.9375 67.5 161.398438 66.773438 160.898438 66.023438 C 160.394531 65.269531 159.929688 64.496094 159.503906 63.695312 C 159.078125 62.898438 158.691406 62.082031 158.34375 61.246094 C 158 60.410156 157.695312 59.558594 157.433594 58.695312 C 157.167969 57.828125 156.949219 56.953125 156.773438 56.0625 C 156.597656 55.175781 156.464844 54.28125 156.375 53.382812 C 156.285156 52.480469 156.242188 51.578125 156.242188 50.675781 C 156.242188 49.769531 156.285156 48.867188 156.375 47.96875 C 156.464844 47.066406 156.597656 46.171875 156.773438 45.285156 C 156.949219 44.398438 157.167969 43.523438 157.433594 42.65625 C 157.695312 41.792969 158 40.941406 158.34375 40.105469 C 158.691406 39.269531 159.078125 38.453125 159.503906 37.652344 C 159.929688 36.855469 160.394531 36.082031 160.898438 35.328125 C 161.398438 34.578125 161.9375 33.851562 162.511719 33.152344 C 163.085938 32.453125 163.691406 31.78125 164.332031 31.144531 C 164.972656 30.503906 165.640625 29.898438 166.339844 29.324219 C 167.039062 28.75 167.765625 28.210938 168.519531 27.707031 C 169.269531 27.207031 170.046875 26.742188 170.84375 26.3125 C 171.640625 25.886719 172.457031 25.5 173.292969 25.15625 C 174.128906 24.808594 174.980469 24.503906 175.847656 24.242188 C 176.710938 23.980469 177.589844 23.761719 178.476562 23.582031 C 179.363281 23.40625 180.257812 23.273438 181.15625 23.1875 C 182.058594 23.097656 182.960938 23.050781 183.863281 23.050781 C 184.769531 23.050781 185.671875 23.097656 186.574219 23.1875 C 187.472656 23.273438 188.367188 23.40625 189.253906 23.582031 C 190.140625 23.761719 191.019531 23.980469 191.882812 24.242188 C 192.75 24.503906 193.601562 24.808594 194.4375 25.15625 C 195.269531 25.5 196.089844 25.886719 196.886719 26.3125 C 197.683594 26.742188 198.460938 27.207031 199.210938 27.707031 C 199.964844 28.210938 200.6875 28.75 201.386719 29.324219 C 202.085938 29.898438 202.757812 30.503906 203.398438 31.144531 C 204.035156 31.78125 204.644531 32.453125 205.21875 33.152344 C 205.792969 33.851562 206.328125 34.578125 206.832031 35.328125 C 207.335938 36.082031 207.800781 36.855469 208.226562 37.652344 C 208.652344 38.453125 209.039062 39.269531 209.386719 40.105469 C 209.730469 40.941406 210.035156 41.792969 210.296875 42.65625 C 210.5625 43.523438 210.78125 44.398438 210.957031 45.285156 C 211.132812 46.171875 211.265625 47.066406 211.355469 47.96875 C 211.441406 48.867188 211.488281 49.769531 211.488281 50.675781 Z M 211.488281 50.675781 " fill-opacity="1" fill-rule="nonzero"/></g><path fill="#ffdd38" d="M 209.316406 50.675781 C 209.316406 51.507812 209.273438 52.339844 209.191406 53.167969 C 209.109375 54 208.988281 54.824219 208.824219 55.640625 C 208.664062 56.457031 208.460938 57.265625 208.21875 58.0625 C 207.976562 58.859375 207.695312 59.644531 207.378906 60.414062 C 207.058594 61.183594 206.703125 61.9375 206.308594 62.671875 C 205.917969 63.40625 205.488281 64.121094 205.027344 64.816406 C 204.5625 65.507812 204.066406 66.175781 203.539062 66.820312 C 203.007812 67.464844 202.449219 68.082031 201.859375 68.671875 C 201.273438 69.261719 200.65625 69.820312 200.011719 70.347656 C 199.367188 70.878906 198.699219 71.375 198.003906 71.835938 C 197.3125 72.300781 196.597656 72.726562 195.863281 73.121094 C 195.128906 73.511719 194.375 73.871094 193.605469 74.1875 C 192.835938 74.507812 192.050781 74.789062 191.253906 75.03125 C 190.457031 75.273438 189.648438 75.472656 188.828125 75.636719 C 188.011719 75.800781 187.1875 75.921875 186.359375 76.003906 C 185.53125 76.085938 184.699219 76.125 183.863281 76.125 C 183.03125 76.125 182.199219 76.085938 181.371094 76.003906 C 180.539062 75.921875 179.71875 75.800781 178.898438 75.636719 C 178.082031 75.472656 177.273438 75.273438 176.476562 75.03125 C 175.679688 74.789062 174.894531 74.507812 174.125 74.1875 C 173.355469 73.871094 172.601562 73.511719 171.867188 73.121094 C 171.132812 72.726562 170.417969 72.300781 169.726562 71.835938 C 169.03125 71.375 168.363281 70.878906 167.71875 70.347656 C 167.074219 69.820312 166.457031 69.261719 165.867188 68.671875 C 165.28125 68.082031 164.71875 67.464844 164.191406 66.820312 C 163.664062 66.175781 163.167969 65.507812 162.703125 64.816406 C 162.242188 64.121094 161.8125 63.40625 161.417969 62.671875 C 161.027344 61.9375 160.671875 61.183594 160.351562 60.414062 C 160.03125 59.644531 159.753906 58.859375 159.511719 58.0625 C 159.269531 57.265625 159.066406 56.457031 158.902344 55.640625 C 158.742188 54.824219 158.617188 54 158.539062 53.167969 C 158.457031 52.339844 158.414062 51.507812 158.414062 50.675781 C 158.414062 49.839844 158.457031 49.011719 158.539062 48.179688 C 158.617188 47.351562 158.742188 46.527344 158.902344 45.710938 C 159.066406 44.894531 159.269531 44.085938 159.511719 43.289062 C 159.753906 42.488281 160.03125 41.707031 160.351562 40.9375 C 160.671875 40.164062 161.027344 39.414062 161.417969 38.679688 C 161.8125 37.941406 162.242188 37.230469 162.703125 36.535156 C 163.167969 35.84375 163.664062 35.175781 164.191406 34.53125 C 164.71875 33.886719 165.28125 33.269531 165.867188 32.679688 C 166.457031 32.089844 167.074219 31.53125 167.71875 31 C 168.363281 30.472656 169.03125 29.976562 169.726562 29.515625 C 170.417969 29.050781 171.132812 28.621094 171.867188 28.230469 C 172.601562 27.835938 173.355469 27.480469 174.125 27.164062 C 174.894531 26.84375 175.679688 26.5625 176.476562 26.320312 C 177.273438 26.078125 178.082031 25.875 178.898438 25.714844 C 179.71875 25.550781 180.539062 25.429688 181.371094 25.347656 C 182.199219 25.265625 183.03125 25.226562 183.863281 25.226562 C 184.699219 25.226562 185.53125 25.265625 186.359375 25.347656 C 187.1875 25.429688 188.011719 25.550781 188.828125 25.714844 C 189.648438 25.875 190.457031 26.078125 191.253906 26.320312 C 192.050781 26.5625 192.835938 26.84375 193.605469 27.164062 C 194.375 27.480469 195.128906 27.835938 195.863281 28.230469 C 196.597656 28.621094 197.3125 29.050781 198.003906 29.515625 C 198.699219 29.976562 199.367188 30.472656 200.011719 31 C 200.65625 31.53125 201.273438 32.089844 201.859375 32.679688 C 202.449219 33.269531 203.007812 33.886719 203.539062 34.53125 C 204.066406 35.175781 204.5625 35.84375 205.027344 36.535156 C 205.488281 37.230469 205.917969 37.941406 206.308594 38.679688 C 206.703125 39.414062 207.058594 40.164062 207.378906 40.9375 C 207.695312 41.707031 207.976562 42.488281 208.21875 43.289062 C 208.460938 44.085938 208.664062 44.894531 208.824219 45.710938 C 208.988281 46.527344 209.109375 47.351562 209.191406 48.179688 C 209.273438 49.011719 209.316406 49.839844 209.316406 50.675781 Z M 209.316406 50.675781 " fill-opacity="1" fill-rule="nonzero"/><path fill="#39250f" d="M 197.847656 45.695312 L 188.84375 45.695312 L 188.84375 36.691406 C 188.84375 36.4375 188.792969 36.191406 188.695312 35.953125 C 188.597656 35.71875 188.460938 35.511719 188.28125 35.328125 C 188.097656 35.148438 187.890625 35.011719 187.65625 34.914062 C 187.417969 34.816406 187.171875 34.765625 186.917969 34.765625 L 180.8125 34.765625 C 180.558594 34.765625 180.3125 34.816406 180.074219 34.914062 C 179.839844 35.011719 179.632812 35.148438 179.449219 35.328125 C 179.269531 35.511719 179.128906 35.71875 179.03125 35.953125 C 178.933594 36.191406 178.886719 36.4375 178.886719 36.691406 L 178.886719 45.695312 L 169.882812 45.695312 C 169.625 45.695312 169.378906 45.746094 169.144531 45.84375 C 168.910156 45.941406 168.699219 46.078125 168.519531 46.261719 C 168.339844 46.441406 168.199219 46.648438 168.101562 46.886719 C 168.003906 47.121094 167.957031 47.367188 167.957031 47.621094 L 167.957031 53.726562 C 167.957031 53.984375 168.003906 54.230469 168.101562 54.464844 C 168.199219 54.699219 168.339844 54.910156 168.519531 55.089844 C 168.699219 55.269531 168.910156 55.410156 169.144531 55.507812 C 169.378906 55.605469 169.625 55.652344 169.882812 55.652344 L 178.886719 55.652344 L 178.886719 64.660156 C 178.886719 64.914062 178.933594 65.160156 179.03125 65.394531 C 179.128906 65.632812 179.269531 65.839844 179.449219 66.019531 C 179.632812 66.203125 179.839844 66.339844 180.074219 66.4375 C 180.3125 66.535156 180.558594 66.585938 180.8125 66.585938 L 186.917969 66.585938 C 187.171875 66.585938 187.417969 66.535156 187.65625 66.4375 C 187.890625 66.339844 188.097656 66.199219 188.28125 66.019531 C 188.460938 65.839844 188.597656 65.632812 188.695312 65.394531 C 188.796875 65.160156 188.84375 64.914062 188.84375 64.660156 L 188.84375 55.652344 L 197.847656 55.652344 C 198.105469 55.652344 198.347656 55.605469 198.585938 55.507812 C 198.820312 55.410156 199.03125 55.269531 199.210938 55.089844 C 199.390625 54.910156 199.53125 54.699219 199.628906 54.464844 C 199.726562 54.230469 199.773438 53.984375 199.773438 53.726562 L 199.773438 47.621094 C 199.773438 47.367188 199.726562 47.121094 199.628906 46.886719 C 199.53125 46.648438 199.390625 46.441406 199.210938 46.261719 C 199.03125 46.078125 198.820312 45.941406 198.585938 45.84375 C 198.347656 45.746094 198.105469 45.695312 197.847656 45.695312 Z M 197.847656 45.695312 " fill-opacity="1" fill-rule="nonzero"/><g fill="#39250f" fill-opacity="1"><g transform="translate(4.922585, 73.324311)"><g><path d="M 24.636719 -45.992188 L 3.351562 -45.992188 L 3.351562 0 L 24.507812 0 C 34.164062 0 39.222656 -7.425781 39.222656 -14.847656 C 39.222656 -18.726562 37.253906 -22.730469 32.390625 -25.230469 C 35.414062 -27.332031 36.792969 -30.550781 36.792969 -33.703125 C 36.792969 -39.75 31.929688 -45.992188 24.636719 -45.992188 Z M 22.929688 -29.367188 L 14.453125 -29.367188 L 14.453125 -35.808594 L 23.0625 -35.808594 C 24.835938 -35.808594 25.820312 -34.230469 25.820312 -32.652344 C 25.820312 -31.011719 24.902344 -29.367188 22.929688 -29.367188 Z M 24.507812 -10.644531 L 14.453125 -10.644531 L 14.453125 -18.988281 L 24.507812 -18.988281 C 26.871094 -18.988281 28.054688 -16.886719 28.054688 -14.78125 C 28.054688 -12.679688 26.871094 -10.644531 24.507812 -10.644531 Z M 24.507812 -10.644531 "/></g></g></g><g fill="#39250f" fill-opacity="1"><g transform="translate(46.705398, 73.324311)"><g><path d="M 37.582031 -17.871094 C 37.582031 -30.023438 28.382812 -36.070312 19.25 -36.070312 C 9.988281 -36.070312 0.855469 -30.023438 0.855469 -17.871094 C 0.855469 -5.714844 9.988281 0.394531 19.183594 0.394531 C 26.542969 0.394531 33.835938 -3.480469 36.53125 -11.234375 L 25.292969 -11.234375 C 23.785156 -9.59375 21.617188 -8.804688 19.316406 -8.804688 C 16.164062 -8.871094 12.941406 -10.511719 11.695312 -13.796875 L 37.1875 -13.796875 C 37.449219 -15.109375 37.582031 -16.425781 37.582031 -17.871094 Z M 26.28125 -21.878906 L 12.089844 -21.878906 C 13.140625 -25.359375 15.964844 -27.070312 19.054688 -27.070312 C 22.402344 -27.070312 25.292969 -25.425781 26.28125 -21.878906 Z M 26.28125 -21.878906 "/></g></g></g><g fill="#39250f" fill-opacity="1"><g transform="translate(88.751001, 73.324311)"><g><path d="M 37.582031 -17.871094 C 37.582031 -30.023438 28.382812 -36.070312 19.25 -36.070312 C 9.988281 -36.070312 0.855469 -30.023438 0.855469 -17.871094 C 0.855469 -5.714844 9.988281 0.394531 19.183594 0.394531 C 26.542969 0.394531 33.835938 -3.480469 36.53125 -11.234375 L 25.292969 -11.234375 C 23.785156 -9.59375 21.617188 -8.804688 19.316406 -8.804688 C 16.164062 -8.871094 12.941406 -10.511719 11.695312 -13.796875 L 37.1875 -13.796875 C 37.449219 -15.109375 37.582031 -16.425781 37.582031 -17.871094 Z M 26.28125 -21.878906 L 12.089844 -21.878906 C 13.140625 -25.359375 15.964844 -27.070312 19.054688 -27.070312 C 22.402344 -27.070312 25.292969 -25.425781 26.28125 -21.878906 Z M 26.28125 -21.878906 "/></g></g></g><g fill="#39250f" fill-opacity="1"><g transform="translate(130.796604, 73.324311)"><g><path d="M 0.328125 -28.183594 L 0.328125 -18.066406 L 20.5625 -18.066406 L 20.5625 -28.183594 Z M 0.328125 -28.183594 "/></g></g></g></svg>